<?xml version="1.0" encoding="utf-8"?>
<!-- Generator: Adobe Illustrator 19.2.1, SVG Export Plug-In . SVG Version: 6.00 Build 0)  -->
<!DOCTYPE svg PUBLIC "-//W3C//DTD SVG 1.1//EN" "http://www.w3.org/Graphics/SVG/1.1/DTD/svg11.dtd">
<svg version="1.1" id="Layer_1" xmlns="http://www.w3.org/2000/svg" xmlns:xlink="http://www.w3.org/1999/xlink" x="0px" y="0px"
	 viewBox="0 0 144 144" enable-background="new 0 0 144 144" xml:space="preserve">
<g>
	<g>
		<path fill="#009583" d="M90-527.8c-1.5,6.3-4.7,12.2-9.4,16.9c-6.6,6.6-15.5,10.3-24.9,10.3c-6.5,0-12.9-1.8-18.3-5.1l22-22H90
			 M96.5-533.4H57.2l-28.2,28.2c7.4,6.5,16.9,10.1,26.9,10.1c10.9,0,21.1-4.2,28.8-11.9C91.7-514.1,95.9-523.4,96.5-533.4
			L96.5-533.4z"/>
		<path fill="#009583" d="M64-570c12.5,2.9,22.3,12.4,25.6,24.8H64L64-570 M58.5-576.5l0,36.9h37.9
			C94.5-559.6,78.6-575.2,58.5-576.5L58.5-576.5z"/>
		<path fill="none" stroke="#009583" stroke-width="5.593" d="M58-584.9c26.1,1.2,46.9,22.8,46.9,49.2c0,27.2-22,49.2-49.2,49.2
			c-12.5,0-24-4.7-32.7-12.4"/>
		<path fill="#009583" d="M46.4-581v41.4l-29,29.6c-5.1-7.6-7.9-16.6-7.9-25.8C9.5-557.9,25.3-576.7,46.4-581 M52-587.4
			c-26.9,1.9-48.1,24.3-48.1,51.6c0,13.2,4.9,25.2,13,34.3L52-537.3V-587.4L52-587.4z"/>
	</g>
	<g>
		<g>
			<path fill="none" stroke="#009583" stroke-width="5.593" d="M85.7-504.9"/>
		</g>
		<path fill="none" stroke="#009583" stroke-width="5.593" d="M136.9-468.2c3.8,9.2-5.4,18.3-14.5,14.5c-11.7-11.7-18-18-29.7-29.7
			c4.8-4.8,9.7-9.7,14.5-14.5C119-486.1,125.2-479.9,136.9-468.2z"/>
		<line fill="none" stroke="#009583" stroke-width="5.593" x1="113.8" y1="-487.9" x2="102.6" y2="-476.7"/>
		<g>
			<line fill="none" stroke="#009583" stroke-width="5.593" x1="98.9" y1="-491.6" x2="91" y2="-499.5"/>
		</g>
	</g>
</g>
<g>
	<g>
		<g>
			<path fill="none" stroke="#009583" stroke-width="5.4728" d="M245.4-471.7h-9.5c-4.8,0-8.8,3.9-8.8,8.8c0,4.8,3.9,8.8,8.8,8.8
				h9.5V-471.7z"/>
			<polyline fill="none" stroke="#009583" stroke-width="5.4728" points="333.3,-553.3 334.7,-553.3 272.3,-553.3 			"/>
			<path fill="none" stroke="#009583" stroke-width="5.4728" d="M251.9-553.3h-16c-4.5,0-8.2,3.4-8.7,7.7c0,2.4,0,77.7,0,81.6
				c0.5-4.4,4.2-7.7,8.7-7.7h99.4v0l1.5,0c4.5,0,8.2-3.4,8.7-7.8c0-2.4,0-77.7,0-81.6"/>
			<path fill="none" stroke="#009583" stroke-width="5.4728" d="M332.3-487.9h4.4c4.5,0,8.2,3.4,8.7,7.7c0-3.9,0-79.2,0-81.6
				c-0.5-4.4-4.2-7.7-8.7-7.7h-4.4V-487.9z"/>
		</g>
	</g>
	<g>
		<circle fill="none" stroke="#009583" stroke-width="5.4728" cx="305.4" cy="-516.9" r="7.8"/>
		<g>
			<line fill="none" stroke="#009583" stroke-width="5.4728" x1="305.4" y1="-526.4" x2="305.4" y2="-533.7"/>
			<line fill="none" stroke="#009583" stroke-width="5.4728" x1="305.4" y1="-500.1" x2="305.4" y2="-507.5"/>
		</g>
		<g>
			<line fill="none" stroke="#009583" stroke-width="5.4728" x1="297.2" y1="-521.6" x2="290.9" y2="-525.3"/>
			<line fill="none" stroke="#009583" stroke-width="5.4728" x1="319.9" y1="-508.5" x2="313.6" y2="-512.2"/>
		</g>
		<g>
			<line fill="none" stroke="#009583" stroke-width="5.4728" x1="297.2" y1="-512.2" x2="290.9" y2="-508.5"/>
			<line fill="none" stroke="#009583" stroke-width="5.4728" x1="319.9" y1="-525.3" x2="313.6" y2="-521.6"/>
		</g>
	</g>
	<g>
		<polyline fill="none" stroke="#009583" stroke-width="5.4728" points="244.3,-499.6 253,-529.7 261.7,-559.8 270.4,-529.7 
			279.2,-499.6 		"/>
		<circle fill="none" stroke="#009583" stroke-width="5.4728" cx="261.7" cy="-566.6" r="7.8"/>
		<line fill="none" stroke="#009583" stroke-width="5.4728" x1="261.7" y1="-575.3" x2="261.7" y2="-587.2"/>
		<path fill="none" stroke="#009583" stroke-width="5.4728" d="M243.6-531c11.4,5.4,24.8,5.4,36.2,0"/>
	</g>
</g>
<g>
	<rect x="5" y="-339.2" fill="none" stroke="#009583" stroke-width="4.9486" width="121.9" height="86.5"/>
	<polyline fill="none" stroke="#009583" stroke-width="4.9486" points="117,-294 117,-288.4 14.9,-288.4 14.9,-329.5 117,-329.5 
		117,-324 	"/>
	<path fill="#009583" d="M39.5-276.1v11H17.4v-11H39.5 M44.4-281.1h-32v20.9h32V-281.1L44.4-281.1z"/>
	<path fill="#009583" d="M77-276.1v11H54.9v-11H77 M82-281.1H50v20.9h32V-281.1L82-281.1z"/>
	<path fill="#009583" d="M114.5-276.1v11H92.5v-11H114.5 M119.5-281.1h-32v20.9h32V-281.1L119.5-281.1z"/>
	<rect x="5" y="-353.5" fill="none" stroke="#009583" stroke-width="4.9486" width="121.9" height="14.2"/>
	<line fill="none" stroke="#009583" stroke-width="4.9486" x1="10.6" y1="-346.4" x2="15.2" y2="-346.4"/>
	<line fill="none" stroke="#009583" stroke-width="4.9486" x1="18.6" y1="-346.4" x2="23.2" y2="-346.4"/>
	<line fill="none" stroke="#009583" stroke-width="4.9486" x1="26.6" y1="-346.4" x2="31.3" y2="-346.4"/>
	<g>
		<polyline fill="none" stroke="#009583" stroke-width="4.9486" points="43,-300.7 41.3,-300.7 24.4,-309.2 41.3,-317.7 43,-317.7 
					"/>
		<path fill="#009583" d="M124.3-315.4v12.3H45.6l0-12.3H124.3 M129.3-320.3H40.7l0,22.2h88.6V-320.3L129.3-320.3z"/>
		<line fill="none" stroke="#009583" stroke-width="4.9486" x1="127.7" y1="-309.2" x2="45.3" y2="-309.2"/>
		<path fill="none" stroke="#009583" stroke-width="4.9486" d="M128.6-300.6h6.9c0.9,0,1.5-0.8,1.5-1.9l0-13.4c0-1-0.7-1.9-1.5-1.9
			h-6.9"/>
	</g>
</g>
<g>
	<g>
		<line fill="none" stroke="#009583" stroke-width="5.2161" x1="297.6" y1="-276.2" x2="288.2" y2="-276.2"/>
		<line fill="none" stroke="#009583" stroke-width="5.2161" x1="344.2" y1="-349.4" x2="344.2" y2="-303.2"/>
		<path fill="none" stroke="#009583" stroke-width="5.2161" d="M231.8-276.2c-2.4,0-4.4-2-4.4-4.4v-68.7"/>
		<g>
			<g>
				<line fill="none" stroke="#009583" stroke-width="5.2161" x1="237.2" y1="-345.5" x2="243.2" y2="-345.5"/>
			</g>
			<g>
				<line fill="none" stroke="#009583" stroke-width="5.2161" x1="250.3" y1="-345.5" x2="256.3" y2="-345.5"/>
			</g>
			<g>
				<line fill="none" stroke="#009583" stroke-width="5.2161" x1="263.4" y1="-345.5" x2="269.4" y2="-345.5"/>
			</g>
			<g>
				<line fill="none" stroke="#009583" stroke-width="5.2161" x1="276.5" y1="-345.5" x2="282.5" y2="-345.5"/>
			</g>
			<g>
				<line fill="none" stroke="#009583" stroke-width="5.2161" x1="289.6" y1="-345.5" x2="295.6" y2="-345.5"/>
			</g>
			<g>
				<line fill="none" stroke="#009583" stroke-width="5.2161" x1="302.7" y1="-345.5" x2="308.7" y2="-345.5"/>
			</g>
			<g>
				<line fill="none" stroke="#009583" stroke-width="5.2161" x1="315.8" y1="-345.5" x2="321.8" y2="-345.5"/>
			</g>
			<g>
				<line fill="none" stroke="#009583" stroke-width="5.2161" x1="328.9" y1="-345.5" x2="334.9" y2="-345.5"/>
			</g>
		</g>
		<g>
			<g>
				<line fill="none" stroke="#009583" stroke-width="5.2161" x1="237.2" y1="-334.6" x2="243.2" y2="-334.6"/>
			</g>
			<g>
				<line fill="none" stroke="#009583" stroke-width="5.2161" x1="250.3" y1="-334.6" x2="256.3" y2="-334.6"/>
			</g>
			<g>
				<line fill="none" stroke="#009583" stroke-width="5.2161" x1="263.4" y1="-334.6" x2="269.4" y2="-334.6"/>
			</g>
			<g>
				<line fill="none" stroke="#009583" stroke-width="5.2161" x1="276.5" y1="-334.6" x2="282.5" y2="-334.6"/>
			</g>
			<g>
				<line fill="none" stroke="#009583" stroke-width="5.2161" x1="289.6" y1="-334.6" x2="295.6" y2="-334.6"/>
			</g>
			<g>
				<line fill="none" stroke="#009583" stroke-width="5.2161" x1="302.7" y1="-334.6" x2="308.7" y2="-334.6"/>
			</g>
			<g>
				<line fill="none" stroke="#009583" stroke-width="5.2161" x1="315.8" y1="-334.6" x2="321.8" y2="-334.6"/>
			</g>
			<g>
				<line fill="none" stroke="#009583" stroke-width="5.2161" x1="328.9" y1="-334.6" x2="334.9" y2="-334.6"/>
			</g>
		</g>
		<g>
			<g>
				<line fill="none" stroke="#009583" stroke-width="5.2161" x1="237.2" y1="-323.8" x2="243.2" y2="-323.8"/>
			</g>
			<g>
				<line fill="none" stroke="#009583" stroke-width="5.2161" x1="276.5" y1="-323.8" x2="282.5" y2="-323.8"/>
			</g>
			<g>
				<line fill="none" stroke="#009583" stroke-width="5.2161" x1="289.6" y1="-323.8" x2="295.6" y2="-323.8"/>
			</g>
			<g>
				<line fill="none" stroke="#009583" stroke-width="5.2161" x1="302.7" y1="-323.8" x2="308.7" y2="-323.8"/>
			</g>
			<g>
				<line fill="none" stroke="#009583" stroke-width="5.2161" x1="328.9" y1="-323.8" x2="334.9" y2="-323.8"/>
			</g>
		</g>
		<g>
			<g>
				<line fill="none" stroke="#009583" stroke-width="5.2161" x1="276.5" y1="-312.9" x2="306.9" y2="-312.9"/>
			</g>
			<g>
				<line fill="none" stroke="#009583" stroke-width="5.2161" x1="289.6" y1="-312.9" x2="295.6" y2="-312.9"/>
			</g>
			<g>
				<line fill="none" stroke="#009583" stroke-width="5.2161" x1="302.7" y1="-312.9" x2="308.7" y2="-312.9"/>
			</g>
			<g>
				<line fill="none" stroke="#009583" stroke-width="5.2161" x1="328.9" y1="-312.9" x2="334.9" y2="-312.9"/>
			</g>
		</g>
		<path fill="none" stroke="#009583" stroke-width="5.2161" d="M351.9-354.9c-2.1-3.6-6-7.3-10.4-7.3H230.1c-4.4,0-8.3,3.7-10.4,7.3
			H351.9z"/>
	</g>
	<path fill="none" stroke="#009583" stroke-width="5.2161" d="M344.9-253.6v-5.8c2.8-2.1,4.6-5.4,4.6-9.1v-19.8l-0.2-4.4
		c0-2.3-1.9-4.2-4.2-4.2c-2.3,0-4.2,0.8-4.2,3.2v-1.1c0-2.3-1.9-4.2-4.2-4.2c-2.3,0-4.2,1.9-4.2,4.2v-2.1c0-2.3-1.9-4.2-4.2-4.2
		c-2.3,0-4.2,1.9-4.2,4.2v2.4c0-5.7,0-24.4,0-24.4c0-2.4-2-4.4-4.4-4.4c-2.4,0-4.4,2-4.4,4.4l0,42.9l-0.1-2.1v-8.8
		c0-3.6-2.9-6.5-6.5-6.5h-2.2c-0.1,0,0.1,0,0,0v8.1c0,0,0,0,0,0v10.8l12.3,14.3c1.4,1.3,3.2,2.3,5.1,2.8v3.9"/>
	<g>
		<path fill="none" stroke="#009583" stroke-width="5.2161" d="M241.4-253.6v-5.8c-2.8-2.1-4.6-5.4-4.6-9.1v-25.9"/>
		<path fill="none" stroke="#009583" stroke-width="5.2161" d="M271.3-294.5l0,18.3l0.1-2.1v-8.8c0-3.6,2.9-6.5,6.5-6.5h2.2
			c-0.3,0-0.5,0,0,0v8.1c0,0,0,0,0,0v10.8l-12.3,14.3c-1.4,1.3-3.2,2.3-5.1,2.8v3.9"/>
		<path fill="none" stroke="#009583" stroke-width="5.2161" d="M236.8-294.3v-15.4c0-2.3,1.9-4.3,4.3-4.3l0,0c2.3,0,4.3,1.9,4.3,4.3
			v15.4"/>
		<path fill="none" stroke="#009583" stroke-width="5.2161" d="M245.5-294.3V-319c0-2.3,1.9-4.3,4.3-4.3l0,0c2.3,0,4.3,1.9,4.3,4.3
			v24.6"/>
		<path fill="none" stroke="#009583" stroke-width="5.2161" d="M254.1-294.3v-29c0-2.3,1.9-4.3,4.3-4.3l0,0c2.3,0,4.3,1.9,4.3,4.3
			v29"/>
		<path fill="none" stroke="#009583" stroke-width="5.2161" d="M262.8-294.3V-316c0-2.3,1.9-4.3,4.3-4.3l0,0c2.3,0,4.3,1.9,4.3,4.3
			v21.6"/>
	</g>
	<g>
		<polyline fill="none" stroke="#009583" stroke-width="5.2161" points="352.4,-253.3 315.7,-253.3 315.7,-244.9 		"/>
	</g>
	<g>
		<polyline fill="none" stroke="#009583" stroke-width="5.2161" points="231.3,-253.3 271.9,-253.3 271.9,-244.9 		"/>
		<polyline fill="none" stroke="#009583" stroke-width="5.2161" points="231.3,-253.3 271.9,-253.3 271.9,-244.9 		"/>
	</g>
</g>
<g>
	<g>
		<g>
			<polyline fill="none" stroke="#009583" stroke-width="5.5981" points="491.1,-528.7 509,-528.7 509,-546.6 			"/>
			<line fill="none" stroke="#009583" stroke-width="5.5981" x1="508" y1="-529.7" x2="488.4" y2="-549.3"/>
		</g>
		<g>
			<polyline fill="none" stroke="#009583" stroke-width="5.5981" points="477,-562 459.1,-562 459.1,-544.1 			"/>
			<line fill="none" stroke="#009583" stroke-width="5.5981" x1="459.9" y1="-561.2" x2="479.7" y2="-541.3"/>
		</g>
	</g>
	<g>
		<g>
			<path fill="none" stroke="#009583" stroke-width="5.5981" d="M568.5-504.9v-77.2c0-2-1.6-3.6-3.6-3.6H440.1c-2,0-3.6,1.6-3.6,3.6
				v77.2"/>
			<polyline fill="none" stroke="#009583" stroke-width="5.5981" points="511.6,-516.9 448.2,-516.9 448.2,-573.9 556.6,-573.9 
				556.6,-535.9 			"/>
			<path fill="none" stroke="#009583" stroke-width="5.5981" d="M511.6-505h-75.2v11.1c0,2.1,2.2,4.5,4.3,4.5h70.8"/>
			<path fill="none" stroke="#009583" stroke-width="5.5981" d="M558.4-489.3h6.8c2.1,0,3.4-2.2,3.4-4.3V-505h-10.2"/>
			<path fill="none" stroke="#009583" stroke-width="5.5981" d="M487.8-489.3c-0.2,2.8,0.3,8.9-0.3,11.9c-0.5,2.8-0.9,2.8-2.4,3.7
				c-0.8,0.5-2.2,1.1-3.4,1.6l0,0"/>
			<line fill="none" stroke="#009583" stroke-width="5.5981" x1="478.1" y1="-472.3" x2="511.6" y2="-472.3"/>
		</g>
	</g>
	<g>
		<path fill="none" stroke="#009583" stroke-width="5.5981" stroke-miterlimit="10" d="M556.6-456.4c0,1.3-1,2.3-2.3,2.3h-32.5
			c-1.3,0-2.3-1-2.3-2.3v-68.4c0-1.3,1-2.3,2.3-2.3h32.5c1.3,0,2.3,1,2.3,2.3V-456.4z"/>
		
			<line fill="none" stroke="#009583" stroke-width="5.5981" stroke-miterlimit="10" x1="555.8" y1="-465.7" x2="520.3" y2="-465.7"/>
		
			<line fill="none" stroke="#009583" stroke-width="5.5981" stroke-miterlimit="10" x1="520.3" y1="-516.1" x2="555.8" y2="-516.1"/>
	</g>
</g>
<g>
	<path fill="none" stroke="#009583" stroke-width="5.6504" d="M558.3-353.1v-4.8c0-0.6-0.5-1.1-1.1-1.1h-7.8c-0.6,0-1.1,0.5-1.1,1.1
		v4.8"/>
	<polyline fill="none" stroke="#009583" stroke-width="5.6504" points="558.3,-282.9 558.3,-280.8 553.3,-269.8 548.3,-280.8 
		548.3,-282.9 	"/>
	<polyline fill="none" stroke="#009583" stroke-width="5.6504" points="507.7,-237.3 444.4,-237.3 444.4,-263.4 444.4,-297.7 
		444.4,-367.9 535.8,-367.9 535.8,-297.7 535.8,-265.4 	"/>
	<g>
		<polygon fill="none" stroke="#009583" stroke-width="5.6504" points="513.6,-259.5 531.6,-259.5 513.6,-241.5 		"/>
	</g>
	<line fill="none" stroke="#009583" stroke-width="5.6504" x1="476" y1="-343.7" x2="517.7" y2="-343.7"/>
	<line fill="none" stroke="#009583" stroke-width="5.6504" x1="476" y1="-333.5" x2="517.7" y2="-333.5"/>
	<polyline fill="none" stroke="#009583" stroke-width="5.6504" points="469,-344.1 461.9,-335.2 457.2,-338.2 	"/>
	<line fill="none" stroke="#009583" stroke-width="5.6504" x1="476" y1="-313.2" x2="517.7" y2="-313.2"/>
	<line fill="none" stroke="#009583" stroke-width="5.6504" x1="476" y1="-303" x2="517.7" y2="-303"/>
	<polyline fill="none" stroke="#009583" stroke-width="5.6504" points="469,-313.5 461.9,-304.6 457.2,-307.7 	"/>
	<line fill="none" stroke="#009583" stroke-width="5.6504" x1="476" y1="-282.7" x2="517.7" y2="-282.7"/>
	<line fill="none" stroke="#009583" stroke-width="5.6504" x1="476" y1="-272.4" x2="517.7" y2="-272.4"/>
	<polyline fill="none" stroke="#009583" stroke-width="5.6504" points="469,-283 461.9,-274.1 457.2,-277.1 	"/>
	<rect x="548.2" y="-347.7" fill="none" stroke="#009583" stroke-width="5.6504" width="10.2" height="64.5"/>
</g>
<g>
	<g>
		<path fill="none" stroke="#009583" stroke-width="5.1433" stroke-linecap="round" stroke-miterlimit="10" d="M45.8-78.2
			c-8.7,5.7-14.6,16.1-14.6,28"/>
		<path fill="none" stroke="#009583" stroke-width="5.1433" stroke-linecap="round" stroke-miterlimit="10" d="M108.8-50.3
			c0-11.9-5.9-22.3-14.7-28"/>
		<path fill="none" stroke="#009583" stroke-width="5.1433" stroke-linecap="round" stroke-miterlimit="10" d="M46.9-85.6"/>
		<path fill="none" stroke="#009583" stroke-width="5.1433" stroke-linecap="round" stroke-miterlimit="10" d="M92.6-87.7
			c4.5-8.1,7.3-17.9,7.5-28.5c0.5-28.6-17.5-52.2-40.4-52.6c-2.5,0-4.9,0.3-7.3,0.8c0.5,2.5,1.1,7.5,1.8,10l-24.7,25.5l0.4,8.4
			l9.5,8.4c0,0,6.8-10.3,22.2-12.3c-8.6,16.5-13,29-14.5,40"/>
		<path fill="none" stroke="#009583" stroke-width="5.1433" stroke-miterlimit="10" d="M54.2-158c17.7,1,31.1,12.3,37,28.6"/>
		<g>
			<path fill="none" stroke="#009583" stroke-width="5.1433" stroke-miterlimit="10" d="M61.8-128.5c1.6-3.2,3.4-6.4,5.3-9.9"/>
		</g>
		<path fill="none" stroke="#009583" stroke-width="5.1433" stroke-miterlimit="10" d="M78.9-87.4h16.5c1.4,0,2.6,1.2,2.6,2.6v3.9
			c0,1.4-1.2,2.6-2.6,2.6H45.7c-1.4,0-2.6-1.2-2.6-2.6v-3.9c0-1.4,1.2-2.6,2.6-2.6h7.5"/>
		<path fill="none" stroke="#009583" stroke-width="5.1433" stroke-miterlimit="10" d="M84.9-49.5h24.7c1.4,0,2.6,1.2,2.6,2.6v3.9
			c0,1.4-1.2,2.6-2.6,2.6h-78c-1.4,0-2.6-1.2-2.6-2.6v-3.9c0-1.4,1.2-2.6,2.6-2.6h8.8"/>
	</g>
	<line fill="none" stroke="#009583" stroke-width="5.1433" stroke-miterlimit="10" x1="79.6" y1="-49.5" x2="68" y2="-49.5"/>
	<line fill="none" stroke="#009583" stroke-width="5.1433" stroke-miterlimit="10" x1="74.8" y1="-87.4" x2="69.6" y2="-87.4"/>
</g>
<g>
	<g>
		<polyline fill="none" stroke="#009583" stroke-width="4.6313" points="291.7,-96.6 290.6,-97.7 285.1,-114.5 301.8,-109 
			303,-107.8 		"/>
		<path fill="#FFFFFF" stroke="#009583" stroke-width="3" stroke-miterlimit="10" d="M303.1-104.5l36.2,36.2l-8.1,8.1L295-96.4
			L303.1-104.5 M303.1-111.1l-14.7,14.7l42.8,42.8l14.7-14.7L303.1-111.1L303.1-111.1z"/>
		<line fill="none" stroke="#009583" stroke-width="4.6313" x1="337.5" y1="-62" x2="298.9" y2="-100.6"/>
		<path fill="none" stroke="#009583" stroke-width="4.6313" d="M332.4-55.8l4.6,4.6c0.6,0.6,1.6,0.5,2.3-0.2l8.9-8.9
			c0.7-0.7,0.8-1.7,0.2-2.3l-4.6-4.6"/>
	</g>
	<g>
		<path fill="none" stroke="#009583" stroke-width="4.6313" d="M319.2-91.8c12.6-17.7,11-42.4-4.9-58.3c-17.7-17.7-46.4-17.7-64.1,0
			c-17.7,17.7-17.7,46.4,0,64.1c15.5,15.5,39.4,17.4,57,5.8"/>
		<path fill="none" stroke="#009583" stroke-width="4.6313" d="M308.4-103.2c6.5-11.5,4.9-26.3-4.9-36.1
			c-11.8-11.7-30.8-11.7-42.6,0c-11.8,11.8-11.7,30.8,0,42.6c9.5,9.5,23.7,11.3,35.1,5.5"/>
		<path fill="none" stroke="#009583" stroke-width="4.6313" d="M291.9-127.7c-5.3-5.3-14-5.3-19.4,0c-5.3,5.3-5.3,14,0,19.4
			c5.4,5.3,14,5.3,19.4,0C297.2-113.7,297.2-122.4,291.9-127.7z"/>
		<g>
			<line fill="none" stroke="#009583" stroke-width="4.6313" x1="282.2" y1="-140.3" x2="282.2" y2="-179.7"/>
			<line fill="none" stroke="#009583" stroke-width="4.6313" x1="282.2" y1="-56.4" x2="282.2" y2="-95.8"/>
		</g>
		<g>
			<line fill="none" stroke="#009583" stroke-width="4.6313" x1="304.5" y1="-118.1" x2="343.9" y2="-118.1"/>
			<line fill="none" stroke="#009583" stroke-width="4.6313" x1="220.5" y1="-118.1" x2="259.9" y2="-118.1"/>
		</g>
	</g>
</g>
<g>
	<g>
		<g>
			<line fill="none" stroke="#009583" stroke-width="4.393" x1="464.2" y1="-61.9" x2="464.2" y2="-169.7"/>
			<line fill="none" stroke="#009583" stroke-width="4.393" x1="554.7" y1="-169.7" x2="554.7" y2="-61.9"/>
		</g>
		<line fill="none" stroke="#009583" stroke-width="4.393" x1="554.7" y1="-86.2" x2="464.2" y2="-86.2"/>
		<line fill="none" stroke="#009583" stroke-width="4.393" x1="464.2" y1="-145.4" x2="554.7" y2="-145.4"/>
		<circle fill="none" stroke="#009583" stroke-width="4.393" cx="529.2" cy="-123.7" r="6.4"/>
		<polyline fill="none" stroke="#009583" stroke-width="4.393" points="472.1,-176.3 472.1,-154.2 546.8,-154.2 546.8,-176.3 		"/>
		<polyline fill="none" stroke="#009583" stroke-width="4.393" points="546.8,-55.3 546.8,-77.4 472.1,-77.4 472.1,-55.3 		"/>
		<polyline fill="none" stroke="#009583" stroke-width="4.393" points="504.3,-164.6 509.5,-169.7 514.6,-164.6 		"/>
		<polyline fill="none" stroke="#009583" stroke-width="4.393" points="514.6,-66.8 509.5,-61.7 504.3,-66.8 		"/>
	</g>
	<polygon fill="none" stroke="#009583" stroke-width="4.393" points="472.1,-137.5 472.1,-107.3 485.9,-125.7 499.5,-107.7 
		508.3,-119.3 519.4,-104.5 521.9,-101.2 546.8,-101.2 546.8,-137.5 	"/>
</g>
<g>
	<g>
		<path fill="none" stroke="#009583" stroke-width="4.889" d="M64.2,49.3C63.9,40.2,56.4,33,47.3,33c-4.5,0-8.6,1.8-11.6,4.6"/>
		<path fill="none" stroke="#009583" stroke-width="4.889" d="M47.3,33c-0.9,0-1.8,0.1-2.6,0.2c-2.6-2.9-6.4-4.7-10.6-4.7
			c-6.8,0-12.5,4.7-14,11c0,0,0,0,0,0c-4.7,0-8.6,3.8-8.6,8.6c0,0.4,0,0.8,0.1,1.2h18.8H61h3.2C63.9,40.2,56.4,33,47.3,33z"/>
	</g>
	<g>
		
			<line fill="none" stroke="#009583" stroke-width="4.889" stroke-linecap="round" stroke-linejoin="round" x1="60.5" y1="112.2" x2="62.6" y2="121.3"/>
		
			<line fill="none" stroke="#009583" stroke-width="4.889" stroke-linecap="round" stroke-linejoin="round" x1="72.5" y1="112.2" x2="70.4" y2="121.3"/>
		<rect x="59.9" y="121.6" fill="none" stroke="#009583" stroke-width="4.889" stroke-linecap="round" width="13.5" height="10.1"/>
		<g>
			<g>
				<path fill="none" stroke="#009583" stroke-width="4.889" stroke-linecap="round" stroke-linejoin="round" d="M24.6,49.2
					c-2.3,17.5,6.6,37.7,26.3,54"/>
				<path fill="none" stroke="#009583" stroke-width="4.889" stroke-linecap="round" stroke-linejoin="round" d="M66.7,10.2
					c-13.1,0-25.7,7-33.6,17.7"/>
				<path fill="none" stroke="#009583" stroke-width="4.889" stroke-linecap="round" stroke-linejoin="round" d="M108.9,50.9
					c-0.1-0.6-0.1-1.1-0.2-1.7c-2.2-21.7-21.3-39-42-39"/>
				<path fill="none" stroke="#009583" stroke-width="4.889" stroke-linecap="round" stroke-linejoin="round" d="M82.1,103.6
					c11-9.3,18.5-19.2,22.7-29.1"/>
				<path fill="none" stroke="#009583" stroke-width="4.889" stroke-linecap="round" stroke-linejoin="round" d="M75.7,108.7"/>
				<path fill="none" stroke="#009583" stroke-width="4.889" stroke-linecap="round" stroke-linejoin="round" d="M38.8,49.5
					c-3.3,17.2,1.8,36.1,16.5,53.4"/>
				<path fill="none" stroke="#009583" stroke-width="4.889" stroke-linecap="round" stroke-linejoin="round" d="M66.7,10.2
					c-9.3,6.1-16.6,13.7-21.4,22.1"/>
				<path fill="none" stroke="#009583" stroke-width="4.889" stroke-linecap="round" stroke-linejoin="round" d="M57.5,49.3
					c-1.7,17.7,0.1,35.5,5.3,53.2"/>
				<path fill="none" stroke="#009583" stroke-width="4.889" stroke-linecap="round" stroke-linejoin="round" d="M70.5,102.6
					c8.5-30.9,7.3-61.9-3.7-92.4c-3.4,8.9-6,17.9-7.6,26.9"/>
				<path fill="none" stroke="#009583" stroke-width="4.889" stroke-linecap="round" stroke-linejoin="round" d="M95.1,56.6
					c-1-18-11-34.7-28.4-46.4"/>
				<path fill="none" stroke="#009583" stroke-width="4.889" stroke-linecap="round" stroke-linejoin="round" d="M78,102.8
					c7.7-9.1,12.7-18.7,15.2-28.3"/>
				<path fill="none" stroke="#009583" stroke-width="4.889" stroke-linecap="round" stroke-linejoin="round" d="M70.3,108.6"/>
			</g>
			<polygon fill="none" stroke="#009583" stroke-width="4.889" stroke-linecap="round" stroke-linejoin="round" points="60.5,112.2 
				50.8,103.2 66.7,103.2 82.6,103.2 72.9,112.2 			"/>
		</g>
		<path fill="none" stroke="#009583" stroke-width="4.889" stroke-linecap="round" d="M83.6,74.4h51.2c0,0,0-0.1,0-0.1
			c0-5.7-4.6-10.3-10.3-10.3c-1,0-1.9,0.1-2.8,0.4c-1-7.4-7.3-13-15-13c-8.4,0-15.1,6.8-15.1,15.1c0,0,0,0.1,0,0.1
			C87.5,67,84.2,70.2,83.6,74.4z"/>
	</g>
</g>
<g>
	<polyline fill="none" stroke="#009583" stroke-width="5.8127" points="276.9,129.5 276.9,139.9 355.5,139.9 355.5,73.6 355.5,41.8 
			"/>
	<polyline fill="none" stroke="#009583" stroke-width="5.8127" points="330.3,16.6 276.9,16.6 276.9,41.7 	"/>
	<g>
		<path fill="#FFFFFF" stroke="#009583" stroke-width="2.9063" stroke-miterlimit="10" d="M340.4,27.7l4,4h-4V27.7 M334.6,13.7v23.8
			h23.8L334.6,13.7L334.6,13.7z"/>
	</g>
	<g>
		<polyline fill="none" stroke="#009583" stroke-width="5.8127" points="273.6,55.1 342.6,55.1 342.6,127.9 235.2,127.9 235.2,55.1 
			247.8,55.1 		"/>
		<path fill="#FFFFFF" stroke="#009583" stroke-width="2.9063" stroke-miterlimit="10" d="M327.5,70.3v31.5h-20.9l-1.2-1.6
			l-13.3-17.7l-4.6-6.2l-4.6,6.2l-5.8,7.7L265.6,75l-3.6-4.7H327.5 M259.9,70.3l-3.6,4.7l-5.9,7.9V70.3H259.9 M333.3,64.5h-88.7
			v35.9L261,78.5l16.1,21.4l10.4-13.9l13.3,17.7l2.9,3.9h29.6V64.5L333.3,64.5z"/>
		<circle fill="none" stroke="#009583" stroke-width="5.8127" cx="312.4" cy="83.8" r="7.6"/>
	</g>
	<g>
		<path fill="none" stroke="#009583" stroke-width="5.8127" d="M266.1,41.7l0-14.6c0-5.8-4.7-10.5-10.5-10.5l0,0
			c-5.8,0-10.5,4.7-10.5,10.5v14.6"/>
		<path fill="none" stroke="#009583" stroke-width="5.8127" d="M254.9,32.4l0,21.6c0,3.1,2.5,5.6,5.6,5.6l0,0c3.1,0,5.6-2.5,5.6-5.6
			l0-16.3"/>
	</g>
</g>
<g>
	<path fill="none" stroke="#009583" stroke-width="5.1538" d="M534.8,26.3l19.2,0c2.7,0,4.9,2.2,4.9,4.9l-0.1,106.7
		c0,2.7-2.2,4.9-4.9,4.9l-78.7,0c-2.7,0-4.9-2.2-4.9-4.9l0.1-106.7c0-2.7,2.2-4.9,4.9-4.9l15.3,0"/>
	<g>
		<polyline fill="none" stroke="#009583" stroke-width="5.1538" points="529.6,35.8 548.8,35.8 548.8,131.8 480.9,131.7 481,35.8 
			496.2,35.8 		"/>
	</g>
	<path fill="#FFFFFF" stroke="#009583" stroke-width="2.5769" stroke-miterlimit="10" d="M512.7,14.9
		C512.7,14.9,512.7,14.9,512.7,14.9C512.7,14.9,512.7,14.9,512.7,14.9c0.1,0,0.1,0,0.2,0c2.2,0,3.9,1.8,3.9,3.9
		c0,1.2-0.5,2.2-1.3,2.9l1.9,3.2l0.9,1.5l8.2,0l0,11.3h-26.6l0-11.4l7.5,0l0.9-1.5l1.9-3.2c-0.8-0.7-1.3-1.8-1.3-2.9
		C508.8,16.7,510.5,14.9,512.7,14.9 M512.8,20.7c1,0,1.8-0.9,1.8-1.9c0-1-0.8-1.8-1.8-1.9c-1,0-1.8,0.9-1.8,1.9
		C511,19.8,511.8,20.7,512.8,20.7 M512.8,9.8h-0.2h-0.2l0,0c-4.9,0.1-8.8,4.2-8.8,9.1c0,0.9,0.1,1.7,0.4,2.5l-4.1,0l-5.2,0l0,5.2
		l0,11.4l0,5.2h5.2h26.6h5.2l0-5.2l0-11.3l0-5.2l-5.2,0l-4.8,0c0.2-0.8,0.4-1.7,0.4-2.5c0-2.4-0.9-4.7-2.7-6.4
		C517.6,10.7,515.3,9.8,512.8,9.8L512.8,9.8z"/>
	<g>
		<circle fill="none" stroke="#009583" stroke-width="5.1538" cx="524.2" cy="107.3" r="14.7"/>
		<g>
			<line fill="none" stroke="#009583" stroke-width="5.1538" x1="530.1" y1="101.4" x2="518.3" y2="113.2"/>
			<line fill="none" stroke="#009583" stroke-width="5.1538" x1="518.3" y1="101.4" x2="530.1" y2="113.2"/>
		</g>
	</g>
	<circle fill="none" stroke="#009583" stroke-width="5.1538" cx="500.1" cy="66.7" r="8"/>
	<g>
		<polyline fill="none" stroke="#009583" stroke-width="5.1538" points="537.7,60.1 527.9,50.4 518.2,60.1 		"/>
		<path fill="none" stroke="#009583" stroke-width="5.1538" d="M488.5,95.3c21.9,0,39.7-17.5,39.7-39.2c0-1.4-0.1-2.7-0.2-4"/>
	</g>
</g>
</svg>
