<?xml version="1.0" encoding="utf-8"?>
<!-- Generator: Adobe Illustrator 19.2.1, SVG Export Plug-In . SVG Version: 6.00 Build 0)  -->
<!DOCTYPE svg PUBLIC "-//W3C//DTD SVG 1.1//EN" "http://www.w3.org/Graphics/SVG/1.1/DTD/svg11.dtd">
<svg version="1.1" id="Layer_1" xmlns="http://www.w3.org/2000/svg" xmlns:xlink="http://www.w3.org/1999/xlink" x="0px" y="0px"
	 viewBox="0 0 1008.1 303.1" enable-background="new 0 0 1008.1 303.1" xml:space="preserve">
<g>
	<g>
		<path fill="#252C6A" d="M131.5,42.6c0,0,73.3,71.1,84,88.3c10.7,17.1,20.1,31.8,2.3,56.4c-17.8,24.6-94.5,72.9-94.5,72.9
			s-12.1,8.7-17.4,1.9c-1.6-2-0.8-6.8,3.9-12.6c14.6-17.8,77.1-64.7,74.6-96c-2.5-31.3-63.9-101.6-63.9-101.6s-6.1-8.9-1.8-12.5
			C124.2,34.8,131.5,42.6,131.5,42.6"/>
		<path fill="#009F93" d="M97.4,57c0,0-65.3,54.6-75.3,68.2c-10,13.6-18.7,25.2-5.4,46.7c13.3,21.5,74,66.4,74,66.4s9.5,8,14.4,2.6
			c1.4-1.6,1.1-5.6-2.5-10.7c-11.1-15.7-60.1-58.5-56.1-84.4c4-25.8,59.3-80.5,59.3-80.5s5.7-7,2.2-10.3C103.9,51.1,97.4,57,97.4,57
			"/>
		<path fill="#252C6A" d="M123.9,88.1c0,0-43.9,35.9-50.6,44.9c-6.8,9-12.6,16.7-3.9,31.1c8.7,14.4,48.9,44.8,48.9,44.8
			s6.3,5.4,9.6,1.9c0.9-1,0.8-3.7-1.6-7.2c-7.3-10.6-39.7-39.4-36.8-56.6c2.9-17.2,40.1-53.3,40.1-53.3s3.8-4.6,1.6-6.8
			C128.3,84.1,123.9,88.1,123.9,88.1"/>
	</g>
	<g>
		<g>
			<polygon fill="#252C6A" points="284.6,69.1 342.7,69.1 342.7,78.7 295.7,78.7 295.7,100.9 340.5,100.9 340.5,110.6 295.7,110.6 
				295.7,144.1 284.6,144.1 			"/>
			<path fill="#252C6A" d="M351,89h10.5v55H351V89z M351,68.5h10.5V80H351V68.5z"/>
			<path fill="#252C6A" d="M403.2,137.1c14.3,0,20.4-9.9,20.4-20.3c0-12.6-8.1-20.3-20.4-20.3c-12.2,0-20.2,7.7-20.2,20.3
				C383,127.3,389,137.1,403.2,137.1 M422.9,137h-0.2c-4.1,5.8-12.8,8.9-20.9,8.9c-16.6,0-29.9-10.6-29.9-29.1
				c0-18.5,13.3-29.1,29.9-29.1c8.2,0,16.7,2.9,20.9,8.9h0.2V68.5h10.5v75.6h-10.5V137z"/>
			<path fill="#252C6A" d="M494.4,111.5c-1.6-10-9.3-15.5-19.2-15.5c-9.7,0-18.4,5.7-20,15.5H494.4z M454.9,119.7
				c0.8,11.3,10.9,17.4,20.3,17.4c6,0,14.2-2,17.8-9.8h11.1c-5.3,13.2-17.5,18.6-28.4,18.6c-21.4,0-31.9-13.6-31.9-29.4
				s10.5-29.4,31.9-29.4c14.5,0,29.8,8.4,29.8,31.2v1.4H454.9z"/>
			<rect x="516.2" y="68.5" fill="#252C6A" width="10.5" height="75.6"/>
			<path fill="#252C6A" d="M539.6,89h10.5v55h-10.5V89z M539.6,68.5h10.5V80h-10.5V68.5z"/>
			<path fill="#252C6A" d="M567.5,72.1H578V89h15.8v8.2H578v33.9c0,4.4,3.2,6,8.5,6c2.4,0,4.8-0.3,7.3-0.7v8.8
				c-3.6,0.6-7.5,0.7-11.8,0.7c-10.3,0-14.5-5-14.5-13V97.2h-11.3V89h11.3V72.1z"/>
			<path fill="#252C6A" d="M644.4,89h11.8l-28.8,64.5c-5.3,11.7-9.3,13.7-19.1,13.7c-2.6,0-5.2-0.2-8-0.4v-8.8
				c1.9,0.1,3.6,0.4,6.1,0.4c6.5,0,8.1-1.4,11.4-8.4l2.4-5L594.8,89h12.1l18.9,43.5L644.4,89z"/>
		</g>
		<path fill="#252C6A" d="M712.2,99.1c5.8-2.6,15-6.7,15-15.7c0-8.3-7.8-10.8-12.7-10.8c-8.6,0-12.7,5.3-12.7,10.2
			C701.8,90.2,710.6,97.8,712.2,99.1 M710.6,104.2c-11.8,4.6-20.5,9.3-20.5,19.2c0,12,10.3,18.2,22.8,18.2
			c15.3,0,23.5-8.4,25.4-10.8L710.6,104.2z M741.2,127.1c2.5-3.4,4.2-9.6,4.2-13.6h4.8c0,5.9-2.7,12.7-5.9,16.7l14.6,13.9H752
			L741.5,134c-8.4,8.7-16.8,11.8-29.1,11.8c-18.7,0-27.1-11.1-27.1-22.3c0-13.3,13.4-18.7,22.3-22.3C700.8,94,697,90.1,697,83
			c0-5.6,4-14.6,17.5-14.6c9.6,0,17.5,5,17.5,14.6c0,10.9-11,16.3-17,19.1L741.2,127.1z"/>
		<g>
			<path fill="#252C6A" d="M325.7,196.8h34.5v40.4h-8l-1.9-10.7c-4.9,5.8-12.9,12.6-28.8,12.6c-30,0-39.6-21.6-39.6-38.1
				c0-29,19.9-40.6,39.3-40.6c15.4,0,33,4.8,37.7,25.5h-11.8c-3.5-10.4-11.2-15.9-25.4-15.9c-19.9,0-28.7,14.1-28.7,30
				c0,21.2,13.6,29.4,29.2,29.4c16.3,0,26.9-9.7,28-23h-24.6V196.8z"/>
			<path fill="#252C6A" d="M429.6,237.2h-10.5v-8.3h-0.2c-4.9,7.7-13.7,10.2-21.5,10.2c-13.2,0-23.1-5.7-23.1-19.4v-37.5h10.5v35.4
				c0,8.1,5,12.7,16.3,12.7c9.6,0,18.1-5.6,18.1-16.4v-31.7h10.5V237.2z"/>
			<path fill="#252C6A" d="M485.1,208.4c-1.6,1.8-4.4,2.5-10.3,3.3l-11.9,1.5c-8.2,1.1-12.5,3.3-12.5,9c0,5.1,5.1,8.7,12.8,8.7
				c11.9,0,21.8-6.3,21.8-15.4V208.4z M442.3,199.4c1.4-13.8,10.8-19.1,27.3-19.1c11.2,0,25.3,2.8,25.3,15.6v29.6
				c0,3.3,1.5,4.7,4.7,4.7c1.2,0,2.6-0.2,3.7-0.4v7.4c-2.5,0.4-5.7,0.6-8.2,0.6c-5.2,0-8.7-1.5-9.5-7.7c-4.2,5.7-14.5,8.9-23.4,8.9
				c-18.3,0-22.4-9.5-22.4-16.6c0-10.1,6-15.2,23.6-17.1l12-1.3c5.9-0.6,9.6-1.7,9.6-6.6c0-7.6-7.4-9-15.9-9c-9,0-16.7,2.4-17,10.9
				H442.3z"/>
			<path fill="#252C6A" d="M510.5,182.2H521v10.1h0.2c4.9-8.7,12-12,18.9-12c2.6,0,4,0.1,6,0.6v11.3c-2.6-0.6-4.6-1.1-7.5-1.1
				c-10.4,0-17.6,6.1-17.6,18.1v27.9h-10.5V182.2z"/>
			<path fill="#252C6A" d="M595.9,208.4c-1.6,1.8-4.4,2.5-10.3,3.3l-11.9,1.5c-8.2,1.1-12.5,3.3-12.5,9c0,5.1,5.2,8.7,12.8,8.7
				c11.9,0,21.8-6.3,21.8-15.4V208.4z M553.1,199.4c1.4-13.8,10.8-19.1,27.3-19.1c11.2,0,25.3,2.8,25.3,15.6v29.6
				c0,3.3,1.5,4.7,4.7,4.7c1.2,0,2.6-0.2,3.7-0.4v7.4c-2.5,0.4-5.7,0.6-8.2,0.6c-5.3,0-8.7-1.5-9.5-7.7c-4.2,5.7-14.5,8.9-23.4,8.9
				c-18.3,0-22.4-9.5-22.4-16.6c0-10.1,6-15.2,23.6-17.1l12-1.3c5.9-0.6,9.6-1.7,9.6-6.6c0-7.6-7.4-9-15.9-9c-9,0-16.7,2.4-17,10.9
				H553.1z"/>
			<path fill="#252C6A" d="M621.3,182.2h10.5v8.3h0.2c4.9-7.7,13.7-10.2,21.5-10.2c13.2,0,23.1,5.7,23.1,19.4v37.5h-10.5v-35.4
				c0-8.1-5-12.7-16.3-12.7c-9.6,0-18.1,5.6-18.1,16.4v31.7h-10.5V182.2z"/>
			<path fill="#252C6A" d="M694,165.3h10.5v16.9h15.8v8.2h-15.8v33.9c0,4.4,3.1,6,8.5,6c2.4,0,4.8-0.3,7.2-0.7v8.8
				c-3.6,0.6-7.5,0.7-11.8,0.7c-10.3,0-14.5-5-14.5-13v-35.7h-11.3v-8.2H694V165.3z"/>
			<path fill="#252C6A" d="M770.9,182.2h11.8l-28.8,64.5c-5.3,11.7-9.3,13.7-19.1,13.7c-2.6,0-5.2-0.2-8-0.4v-8.8
				c1.9,0.1,3.6,0.4,6.1,0.4c6.5,0,8.1-1.4,11.4-8.4l2.4-5l-25.4-55.9h12.1l18.9,43.5L770.9,182.2z"/>
		</g>
		<g>
			<polygon fill="#252C6A" points="811.8,162.2 816.6,162.2 816.6,233 865.8,233 865.8,237.2 811.8,237.2 			"/>
			<path fill="#252C6A" d="M872,183.4h4.8v53.8H872V183.4z M872,162.2h4.8v11.1H872V162.2z"/>
			<path fill="#252C6A" d="M894.7,187.6h-12.6v-4.2h12.6v-8.1c0-8.4,2.4-13.8,13.7-13.8c2.3,0,5.3,0.3,8.3,0.6v4.2
				c-2.3-0.4-5.4-0.6-7.7-0.6c-2.4,0-9.5,0-9.5,8.1v9.6h15.5v4.2h-15.5v49.6h-4.8V187.6z"/>
			<path fill="#252C6A" d="M971.2,207.2c-2-14.7-12.3-21.2-24.7-21.2c-13.9,0-22.6,8.4-24.7,21.2H971.2z M921.8,211.4
				c0.3,13.4,9.5,23.3,25.6,23.3c16.7,0,21-10.5,22.9-15.3h4.8c-4.5,13.6-14,19.5-28.3,19.5c-18.4,0-29.9-11.1-29.9-29
				c0-11.2,7.1-28.2,30-28.2c18.7,0,29.4,12.4,29.6,29.6H921.8z"/>
		</g>
		<g>
			<g>
				<path fill="#252C6A" d="M987.6,167c1.6,0,3.2,0.4,4.8,1.3c1.5,0.8,2.8,2,3.6,3.6c0.9,1.6,1.3,3.2,1.3,4.9c0,1.7-0.4,3.3-1.3,4.8
					c-0.8,1.5-2,2.7-3.6,3.6c-1.5,0.9-3.1,1.3-4.8,1.3c-1.7,0-3.3-0.4-4.8-1.3c-1.5-0.8-2.7-2.1-3.6-3.6c-0.9-1.5-1.3-3.1-1.3-4.8
					c0-1.7,0.4-3.3,1.3-4.9c0.9-1.6,2.1-2.7,3.6-3.6C984.4,167.4,986,167,987.6,167z M987.6,168.6c-1.4,0-2.7,0.4-4,1.1
					c-1.3,0.7-2.3,1.7-3,3c-0.7,1.3-1.1,2.7-1.1,4.1c0,1.4,0.4,2.7,1.1,4c0.7,1.3,1.7,2.3,3,3c1.3,0.7,2.6,1.1,4,1.1
					c1.4,0,2.7-0.4,4-1.1c1.3-0.7,2.3-1.7,3-3c0.7-1.3,1.1-2.6,1.1-4c0-1.4-0.4-2.8-1.1-4.1c-0.7-1.3-1.7-2.3-3-3
					C990.3,169,988.9,168.6,987.6,168.6z"/>
			</g>
			<path fill="#252C6A" d="M983.9,182.1v-10.4h3.6c1.2,0,2.1,0.1,2.7,0.3c0.5,0.2,1,0.5,1.3,1c0.3,0.5,0.5,1,0.5,1.5
				c0,0.8-0.3,1.4-0.8,2c-0.5,0.6-1.3,0.9-2.2,1c0.4,0.2,0.7,0.3,0.9,0.6c0.4,0.4,0.9,1.1,1.5,2.1l1.3,2h-2.1l-0.9-1.6
				c-0.7-1.3-1.3-2.1-1.8-2.4c-0.3-0.2-0.8-0.4-1.4-0.4h-1v4.4H983.9z M985.6,176.2h2c1,0,1.6-0.1,2-0.4c0.4-0.3,0.5-0.7,0.5-1.2
				c0-0.3-0.1-0.6-0.3-0.8c-0.2-0.2-0.4-0.4-0.7-0.5c-0.3-0.1-0.9-0.2-1.7-0.2h-1.9V176.2z"/>
		</g>
	</g>
</g>
</svg>
