<?xml version="1.0" encoding="utf-8"?>
<!-- Generator: Adobe Illustrator 19.2.1, SVG Export Plug-In . SVG Version: 6.00 Build 0)  -->
<!DOCTYPE svg PUBLIC "-//W3C//DTD SVG 1.1//EN" "http://www.w3.org/Graphics/SVG/1.1/DTD/svg11.dtd">
<svg version="1.1" id="Layer_1" xmlns="http://www.w3.org/2000/svg" xmlns:xlink="http://www.w3.org/1999/xlink" x="0px" y="0px"
	 viewBox="0 0 144 144" enable-background="new 0 0 144 144" xml:space="preserve">
<g>
	<g>
		<g>
			<line fill="none" stroke="#009583" stroke-width="4.393" x1="26.1" y1="127.2" x2="26.1" y2="19.5"/>
			<line fill="none" stroke="#009583" stroke-width="4.393" x1="116.5" y1="19.5" x2="116.5" y2="127.2"/>
		</g>
		<line fill="none" stroke="#009583" stroke-width="4.393" x1="116.5" y1="103" x2="26.1" y2="103"/>
		<line fill="none" stroke="#009583" stroke-width="4.393" x1="26.1" y1="43.7" x2="116.5" y2="43.7"/>
		<circle fill="none" stroke="#009583" stroke-width="4.393" cx="91.1" cy="65.5" r="6.4"/>
		<polyline fill="none" stroke="#009583" stroke-width="4.393" points="34,12.9 34,35 108.7,35 108.7,12.9 		"/>
		<polyline fill="none" stroke="#009583" stroke-width="4.393" points="108.7,133.8 108.7,111.7 34,111.7 34,133.8 		"/>
		<polyline fill="none" stroke="#009583" stroke-width="4.393" points="66.2,24.6 71.3,19.4 76.5,24.6 		"/>
		<polyline fill="none" stroke="#009583" stroke-width="4.393" points="76.5,122.3 71.3,127.5 66.2,122.3 		"/>
	</g>
	<polygon fill="none" stroke="#009583" stroke-width="4.393" points="34,51.6 34,81.8 47.8,63.4 61.4,81.5 70.1,69.8 81.3,84.7 
		83.7,87.9 108.7,87.9 108.7,51.6 	"/>
</g>
</svg>
