<?xml version="1.0" encoding="utf-8"?>
<!-- Generator: Adobe Illustrator 19.2.1, SVG Export Plug-In . SVG Version: 6.00 Build 0)  -->
<!DOCTYPE svg PUBLIC "-//W3C//DTD SVG 1.1//EN" "http://www.w3.org/Graphics/SVG/1.1/DTD/svg11.dtd">
<svg version="1.1" id="Layer_1" xmlns="http://www.w3.org/2000/svg" xmlns:xlink="http://www.w3.org/1999/xlink" x="0px" y="0px"
	 viewBox="0 0 144 144" enable-background="new 0 0 144 144" xml:space="preserve">
<g>
	<g>
		<path fill="#009583" d="M91.5,63.7c-1.5,6.3-4.7,12.2-9.4,16.9c-6.6,6.6-15.5,10.3-24.9,10.3c-6.5,0-12.9-1.8-18.3-5.1l22-22H91.5
			 M98,58.1H58.6L30.4,86.4c7.4,6.5,16.9,10.1,26.9,10.1c10.9,0,21.1-4.2,28.8-11.9C93.2,77.4,97.4,68.1,98,58.1L98,58.1z"/>
		<path fill="#009583" d="M65.5,21.5C78,24.5,87.8,34,91.2,46.3H65.5L65.5,21.5 M59.9,15.1l0,36.9h37.9C96,31.9,80,16.3,59.9,15.1
			L59.9,15.1z"/>
		<path fill="none" stroke="#009583" stroke-width="5.593" d="M59.5,6.6c26.1,1.2,46.9,22.8,46.9,49.2c0,27.2-22,49.2-49.2,49.2
			c-12.5,0-24-4.7-32.7-12.4"/>
		<path fill="#009583" d="M47.9,10.5V52l-29,29.6C13.7,74,10.9,65,10.9,55.8C10.9,33.7,26.8,14.8,47.9,10.5 M53.5,4.1
			C26.6,6,5.4,28.4,5.4,55.8c0,13.2,4.9,25.2,13,34.3l35.1-35.8V4.1L53.5,4.1z"/>
	</g>
	<g>
		<path fill="none" stroke="#009583" stroke-width="5.593" d="M138.4,123.4c3.8,9.2-5.4,18.3-14.5,14.5c-11.7-11.7-18-18-29.7-29.7
			c4.8-4.8,9.7-9.7,14.5-14.5C120.5,105.4,126.7,111.7,138.4,123.4z"/>
		<line fill="none" stroke="#009583" stroke-width="5.593" x1="115.3" y1="103.6" x2="104.1" y2="114.8"/>
		<g>
			<line fill="none" stroke="#009583" stroke-width="5.593" x1="100.4" y1="99.9" x2="92.5" y2="92"/>
		</g>
	</g>
</g>
</svg>
