<?xml version="1.0" encoding="utf-8"?>
<!-- Generator: Adobe Illustrator 19.2.1, SVG Export Plug-In . SVG Version: 6.00 Build 0)  -->
<!DOCTYPE svg PUBLIC "-//W3C//DTD SVG 1.1//EN" "http://www.w3.org/Graphics/SVG/1.1/DTD/svg11.dtd">
<svg version="1.1" id="Layer_1" xmlns="http://www.w3.org/2000/svg" xmlns:xlink="http://www.w3.org/1999/xlink" x="0px" y="0px"
	 viewBox="0 0 144 144" enable-background="new 0 0 144 144" xml:space="preserve">
<g>
	<path fill="none" stroke="#009583" stroke-width="5.6504" d="M127.8,22.5v-4.8c0-0.6-0.5-1.1-1.1-1.1h-7.8c-0.6,0-1.1,0.5-1.1,1.1
		v4.8"/>
	<polyline fill="none" stroke="#009583" stroke-width="5.6504" points="127.8,92.6 127.8,94.7 122.8,105.8 117.8,94.7 117.8,92.6 	
		"/>
	<polyline fill="none" stroke="#009583" stroke-width="5.6504" points="77.2,138.2 13.9,138.2 13.9,112.2 13.9,77.8 13.9,7.6 
		105.3,7.6 105.3,77.8 105.3,110.2 	"/>
	<g>
		<polygon fill="none" stroke="#009583" stroke-width="5.6504" points="83.1,116.1 101,116.1 83.1,134 		"/>
	</g>
	<line fill="none" stroke="#009583" stroke-width="5.6504" x1="45.5" y1="31.8" x2="87.2" y2="31.8"/>
	<line fill="none" stroke="#009583" stroke-width="5.6504" x1="45.5" y1="42" x2="87.2" y2="42"/>
	<polyline fill="none" stroke="#009583" stroke-width="5.6504" points="38.5,31.5 31.4,40.4 26.7,37.4 	"/>
	<line fill="none" stroke="#009583" stroke-width="5.6504" x1="45.5" y1="62.3" x2="87.2" y2="62.3"/>
	<line fill="none" stroke="#009583" stroke-width="5.6504" x1="45.5" y1="72.6" x2="87.2" y2="72.6"/>
	<polyline fill="none" stroke="#009583" stroke-width="5.6504" points="38.5,62 31.4,70.9 26.7,67.9 	"/>
	<line fill="none" stroke="#009583" stroke-width="5.6504" x1="45.5" y1="92.9" x2="87.2" y2="92.9"/>
	<line fill="none" stroke="#009583" stroke-width="5.6504" x1="45.5" y1="103.1" x2="87.2" y2="103.1"/>
	<polyline fill="none" stroke="#009583" stroke-width="5.6504" points="38.5,92.5 31.4,101.4 26.7,98.4 	"/>
	<rect x="117.7" y="27.8" fill="none" stroke="#009583" stroke-width="5.6504" width="10.2" height="64.5"/>
</g>
</svg>
