<?xml version="1.0" encoding="utf-8"?>
<!-- Generator: Adobe Illustrator 19.2.1, SVG Export Plug-In . SVG Version: 6.00 Build 0)  -->
<!DOCTYPE svg PUBLIC "-//W3C//DTD SVG 1.1//EN" "http://www.w3.org/Graphics/SVG/1.1/DTD/svg11.dtd">
<svg version="1.1" id="Layer_1" xmlns="http://www.w3.org/2000/svg" xmlns:xlink="http://www.w3.org/1999/xlink" x="0px" y="0px"
	 viewBox="0 0 144 144" enable-background="new 0 0 144 144" xml:space="preserve">
<g>
	<g>
		<g>
			<path fill="none" stroke="#009583" stroke-width="5.4728" d="M30.9,119.8h-9.5c-4.8,0-8.8,3.9-8.8,8.8c0,4.8,3.9,8.8,8.8,8.8h9.5
				V119.8z"/>
			<polyline fill="none" stroke="#009583" stroke-width="5.4728" points="118.8,38.2 120.1,38.3 57.8,38.3 			"/>
			<path fill="none" stroke="#009583" stroke-width="5.4728" d="M37.3,38.3h-16c-4.5,0-8.2,3.4-8.7,7.7c0,2.4,0,77.7,0,81.6
				c0.5-4.4,4.2-7.7,8.7-7.7h99.4v0l1.5,0c4.5,0,8.2-3.4,8.7-7.8c0-2.4,0-77.7,0-81.6"/>
			<path fill="none" stroke="#009583" stroke-width="5.4728" d="M117.7,103.6h4.4c4.5,0,8.2,3.4,8.7,7.7c0-3.9,0-79.2,0-81.6
				c-0.5-4.4-4.2-7.7-8.7-7.7h-4.4V103.6z"/>
		</g>
	</g>
	<g>
		<circle fill="none" stroke="#009583" stroke-width="5.4728" cx="90.9" cy="74.6" r="7.8"/>
		<g>
			<line fill="none" stroke="#009583" stroke-width="5.4728" x1="90.9" y1="65.2" x2="90.9" y2="57.8"/>
			<line fill="none" stroke="#009583" stroke-width="5.4728" x1="90.9" y1="91.4" x2="90.9" y2="84.1"/>
		</g>
		<g>
			<line fill="none" stroke="#009583" stroke-width="5.4728" x1="82.7" y1="69.9" x2="76.4" y2="66.2"/>
			<line fill="none" stroke="#009583" stroke-width="5.4728" x1="105.4" y1="83" x2="99.1" y2="79.3"/>
		</g>
		<g>
			<line fill="none" stroke="#009583" stroke-width="5.4728" x1="82.7" y1="79.3" x2="76.4" y2="83"/>
			<line fill="none" stroke="#009583" stroke-width="5.4728" x1="105.4" y1="66.2" x2="99.1" y2="69.9"/>
		</g>
	</g>
	<g>
		<polyline fill="none" stroke="#009583" stroke-width="5.4728" points="29.8,91.9 38.5,61.8 47.2,31.7 55.9,61.8 64.6,91.9 		"/>
		<circle fill="none" stroke="#009583" stroke-width="5.4728" cx="47.2" cy="24.9" r="7.8"/>
		<line fill="none" stroke="#009583" stroke-width="5.4728" x1="47.2" y1="16.2" x2="47.2" y2="4.4"/>
		<path fill="none" stroke="#009583" stroke-width="5.4728" d="M29.1,60.5c11.4,5.4,24.8,5.4,36.2,0"/>
	</g>
</g>
</svg>
