<?xml version="1.0" encoding="utf-8"?>
<!-- Generator: Adobe Illustrator 19.2.1, SVG Export Plug-In . SVG Version: 6.00 Build 0)  -->
<!DOCTYPE svg PUBLIC "-//W3C//DTD SVG 1.1//EN" "http://www.w3.org/Graphics/SVG/1.1/DTD/svg11.dtd">
<svg version="1.1" id="Layer_1" xmlns="http://www.w3.org/2000/svg" xmlns:xlink="http://www.w3.org/1999/xlink" x="0px" y="0px"
	 viewBox="0 0 144 144" enable-background="new 0 0 144 144" xml:space="preserve">
<g>
	<g>
		<g>
			<polyline fill="none" stroke="#009583" stroke-width="5.5981" points="60.6,62.9 78.5,62.8 78.5,45 			"/>
			<line fill="none" stroke="#009583" stroke-width="5.5981" x1="77.4" y1="61.8" x2="57.9" y2="42.2"/>
		</g>
		<g>
			<polyline fill="none" stroke="#009583" stroke-width="5.5981" points="46.5,29.6 28.6,29.6 28.6,47.5 			"/>
			<line fill="none" stroke="#009583" stroke-width="5.5981" x1="29.4" y1="30.3" x2="49.2" y2="50.2"/>
		</g>
	</g>
	<g>
		<g>
			<path fill="none" stroke="#009583" stroke-width="5.5981" d="M138,86.6V9.4c0-2-1.6-3.6-3.6-3.6H9.6C7.6,5.8,6,7.4,6,9.4v77.2"/>
			<polyline fill="none" stroke="#009583" stroke-width="5.5981" points="81,74.6 17.7,74.6 17.7,17.7 126.1,17.7 126.1,55.6 			"/>
			<path fill="none" stroke="#009583" stroke-width="5.5981" d="M81,86.5H5.9v11.1c0,2.1,2.2,4.5,4.3,4.5H81"/>
			<path fill="none" stroke="#009583" stroke-width="5.5981" d="M127.9,102.2h6.8c2.1,0,3.4-2.2,3.4-4.3V86.5h-10.2"/>
			<path fill="none" stroke="#009583" stroke-width="5.5981" d="M57.3,102.3c-0.2,2.8,0.3,8.9-0.3,11.9c-0.5,2.8-0.9,2.8-2.4,3.7
				c-0.8,0.5-2.2,1.1-3.4,1.6l0,0"/>
			<line fill="none" stroke="#009583" stroke-width="5.5981" x1="47.6" y1="119.2" x2="81" y2="119.2"/>
		</g>
	</g>
	<g>
		<path fill="none" stroke="#009583" stroke-width="5.5981" stroke-miterlimit="10" d="M126.1,135.1c0,1.3-1,2.3-2.3,2.3H91.3
			c-1.3,0-2.3-1-2.3-2.3V66.7c0-1.3,1-2.3,2.3-2.3h32.5c1.3,0,2.3,1,2.3,2.3V135.1z"/>
		<line fill="none" stroke="#009583" stroke-width="5.5981" stroke-miterlimit="10" x1="125.3" y1="125.9" x2="89.8" y2="125.9"/>
		<line fill="none" stroke="#009583" stroke-width="5.5981" stroke-miterlimit="10" x1="89.8" y1="75.4" x2="125.3" y2="75.4"/>
	</g>
</g>
</svg>
