<?xml version="1.0" encoding="utf-8"?>
<!-- Generator: Adobe Illustrator 19.2.1, SVG Export Plug-In . SVG Version: 6.00 Build 0)  -->
<!DOCTYPE svg PUBLIC "-//W3C//DTD SVG 1.1//EN" "http://www.w3.org/Graphics/SVG/1.1/DTD/svg11.dtd">
<svg version="1.1" id="Layer_1" xmlns="http://www.w3.org/2000/svg" xmlns:xlink="http://www.w3.org/1999/xlink" x="0px" y="0px"
	 viewBox="0 0 144 144" enable-background="new 0 0 144 144" xml:space="preserve">
<g>
	<rect x="6.5" y="36.3" fill="none" stroke="#009583" stroke-width="4.9486" width="121.9" height="86.5"/>
	<polyline fill="none" stroke="#009583" stroke-width="4.9486" points="118.5,81.6 118.5,87.1 16.4,87.1 16.4,46 118.5,46 
		118.5,51.6 	"/>
	<path fill="#009583" d="M41,99.4v11H18.9v-11H41 M45.9,94.5H14v20.9h32V94.5L45.9,94.5z"/>
	<path fill="#009583" d="M78.5,99.4v11H56.4v-11H78.5 M83.4,94.5h-32v20.9h32V94.5L83.4,94.5z"/>
	<path fill="#009583" d="M116,99.4v11H94v-11H116 M121,94.5H89v20.9h32V94.5L121,94.5z"/>
	<rect x="6.5" y="22.1" fill="none" stroke="#009583" stroke-width="4.9486" width="121.9" height="14.2"/>
	<line fill="none" stroke="#009583" stroke-width="4.9486" x1="12.1" y1="29.1" x2="16.7" y2="29.1"/>
	<line fill="none" stroke="#009583" stroke-width="4.9486" x1="20.1" y1="29.1" x2="24.7" y2="29.1"/>
	<line fill="none" stroke="#009583" stroke-width="4.9486" x1="28.1" y1="29.1" x2="32.7" y2="29.1"/>
	<g>
		<polyline fill="none" stroke="#009583" stroke-width="4.9486" points="44.5,74.8 42.8,74.8 25.9,66.3 42.8,57.8 44.5,57.8 		"/>
		<path fill="#009583" d="M125.8,60.2v12.3H47.1l0-12.3H125.8 M130.8,55.2H42.1l0,22.2h88.6V55.2L130.8,55.2z"/>
		<line fill="none" stroke="#009583" stroke-width="4.9486" x1="129.2" y1="66.3" x2="46.8" y2="66.3"/>
		<path fill="none" stroke="#009583" stroke-width="4.9486" d="M130.1,74.9h6.9c0.9,0,1.5-0.8,1.5-1.9l0-13.4c0-1-0.7-1.9-1.5-1.9
			h-6.9"/>
	</g>
</g>
</svg>
