<?xml version="1.0" encoding="utf-8"?>
<!-- Generator: Adobe Illustrator 19.2.1, SVG Export Plug-In . SVG Version: 6.00 Build 0)  -->
<!DOCTYPE svg PUBLIC "-//W3C//DTD SVG 1.1//EN" "http://www.w3.org/Graphics/SVG/1.1/DTD/svg11.dtd">
<svg version="1.1" id="Layer_1" xmlns="http://www.w3.org/2000/svg" xmlns:xlink="http://www.w3.org/1999/xlink" x="0px" y="0px"
	 viewBox="0 0 144 144" enable-background="new 0 0 144 144" xml:space="preserve">
<g>
	<g>
		<line fill="none" stroke="#009583" stroke-width="5.2161" x1="83.1" y1="99.3" x2="73.7" y2="99.3"/>
		<line fill="none" stroke="#009583" stroke-width="5.2161" x1="129.7" y1="26.2" x2="129.7" y2="72.4"/>
		<path fill="none" stroke="#009583" stroke-width="5.2161" d="M17.3,99.3c-2.4,0-4.4-2-4.4-4.4V26.2"/>
		<g>
			<g>
				<line fill="none" stroke="#009583" stroke-width="5.2161" x1="22.7" y1="30" x2="28.7" y2="30"/>
			</g>
			<g>
				<line fill="none" stroke="#009583" stroke-width="5.2161" x1="35.8" y1="30" x2="41.8" y2="30"/>
			</g>
			<g>
				<line fill="none" stroke="#009583" stroke-width="5.2161" x1="48.9" y1="30" x2="54.9" y2="30"/>
			</g>
			<g>
				<line fill="none" stroke="#009583" stroke-width="5.2161" x1="62" y1="30" x2="68" y2="30"/>
			</g>
			<g>
				<line fill="none" stroke="#009583" stroke-width="5.2161" x1="75.1" y1="30" x2="81.1" y2="30"/>
			</g>
			<g>
				<line fill="none" stroke="#009583" stroke-width="5.2161" x1="88.2" y1="30" x2="94.2" y2="30"/>
			</g>
			<g>
				<line fill="none" stroke="#009583" stroke-width="5.2161" x1="101.3" y1="30" x2="107.3" y2="30"/>
			</g>
			<g>
				<line fill="none" stroke="#009583" stroke-width="5.2161" x1="114.4" y1="30" x2="120.4" y2="30"/>
			</g>
		</g>
		<g>
			<g>
				<line fill="none" stroke="#009583" stroke-width="5.2161" x1="22.7" y1="40.9" x2="28.7" y2="40.9"/>
			</g>
			<g>
				<line fill="none" stroke="#009583" stroke-width="5.2161" x1="35.8" y1="40.9" x2="41.8" y2="40.9"/>
			</g>
			<g>
				<line fill="none" stroke="#009583" stroke-width="5.2161" x1="48.9" y1="40.9" x2="54.9" y2="40.9"/>
			</g>
			<g>
				<line fill="none" stroke="#009583" stroke-width="5.2161" x1="62" y1="40.9" x2="68" y2="40.9"/>
			</g>
			<g>
				<line fill="none" stroke="#009583" stroke-width="5.2161" x1="75.1" y1="40.9" x2="81.1" y2="40.9"/>
			</g>
			<g>
				<line fill="none" stroke="#009583" stroke-width="5.2161" x1="88.2" y1="40.9" x2="94.2" y2="40.9"/>
			</g>
			<g>
				<line fill="none" stroke="#009583" stroke-width="5.2161" x1="101.3" y1="40.9" x2="107.3" y2="40.9"/>
			</g>
			<g>
				<line fill="none" stroke="#009583" stroke-width="5.2161" x1="114.4" y1="40.9" x2="120.4" y2="40.9"/>
			</g>
		</g>
		<g>
			<g>
				<line fill="none" stroke="#009583" stroke-width="5.2161" x1="22.7" y1="51.8" x2="28.7" y2="51.8"/>
			</g>
			<g>
				<line fill="none" stroke="#009583" stroke-width="5.2161" x1="62" y1="51.8" x2="68" y2="51.8"/>
			</g>
			<g>
				<line fill="none" stroke="#009583" stroke-width="5.2161" x1="75.1" y1="51.8" x2="81.1" y2="51.8"/>
			</g>
			<g>
				<line fill="none" stroke="#009583" stroke-width="5.2161" x1="88.2" y1="51.8" x2="94.2" y2="51.8"/>
			</g>
			<g>
				<line fill="none" stroke="#009583" stroke-width="5.2161" x1="114.4" y1="51.8" x2="120.4" y2="51.8"/>
			</g>
		</g>
		<g>
			<g>
				<line fill="none" stroke="#009583" stroke-width="5.2161" x1="62" y1="62.6" x2="92.4" y2="62.6"/>
			</g>
			<g>
				<line fill="none" stroke="#009583" stroke-width="5.2161" x1="75.1" y1="62.6" x2="81.1" y2="62.6"/>
			</g>
			<g>
				<line fill="none" stroke="#009583" stroke-width="5.2161" x1="88.2" y1="62.6" x2="94.2" y2="62.6"/>
			</g>
			<g>
				<line fill="none" stroke="#009583" stroke-width="5.2161" x1="114.4" y1="62.6" x2="120.4" y2="62.6"/>
			</g>
		</g>
		<path fill="none" stroke="#009583" stroke-width="5.2161" d="M137.4,20.6c-2.1-3.6-6-7.3-10.4-7.3H15.6c-4.4,0-8.3,3.7-10.4,7.3
			H137.4z"/>
	</g>
	<path fill="none" stroke="#009583" stroke-width="5.2161" d="M130.3,121.9v-5.8c2.8-2.1,4.6-5.4,4.6-9.1V87.1l-0.2-4.4
		c0-2.3-1.9-4.2-4.2-4.2c-2.3,0-4.2,0.8-4.2,3.2v-1.1c0-2.3-1.9-4.2-4.2-4.2c-2.3,0-4.2,1.9-4.2,4.2v-2.1c0-2.3-1.9-4.2-4.2-4.2
		c-2.3,0-4.2,1.9-4.2,4.2v2.4c0-5.7,0-24.4,0-24.4c0-2.4-2-4.4-4.4-4.4c-2.4,0-4.4,2-4.4,4.4l0,42.9l-0.1-2.1v-8.8
		c0-3.6-2.9-6.5-6.5-6.5h-2.2c-0.1,0,0.1,0,0,0v8.1c0,0,0,0,0,0v10.8l12.3,14.3c1.4,1.3,3.2,2.3,5.1,2.8v3.9"/>
	<g>
		<path fill="none" stroke="#009583" stroke-width="5.2161" d="M26.9,121.9v-5.8c-2.8-2.1-4.6-5.4-4.6-9.1V81.1"/>
		<path fill="none" stroke="#009583" stroke-width="5.2161" d="M56.8,81.1l0,18.3l0.1-2.1v-8.8c0-3.6,2.9-6.5,6.5-6.5h2.2
			c-0.3,0-0.5,0,0,0v8.1c0,0,0,0,0,0v10.8l-12.3,14.3c-1.4,1.3-3.2,2.3-5.1,2.8v3.9"/>
		<path fill="none" stroke="#009583" stroke-width="5.2161" d="M22.3,81.2V65.8c0-2.3,1.9-4.3,4.3-4.3l0,0c2.3,0,4.3,1.9,4.3,4.3
			v15.4"/>
		<path fill="none" stroke="#009583" stroke-width="5.2161" d="M31,81.2V56.6c0-2.3,1.9-4.3,4.3-4.3l0,0c2.3,0,4.3,1.9,4.3,4.3v24.6
			"/>
		<path fill="none" stroke="#009583" stroke-width="5.2161" d="M39.6,81.2v-29c0-2.3,1.9-4.3,4.3-4.3l0,0c2.3,0,4.3,1.9,4.3,4.3v29"
			/>
		<path fill="none" stroke="#009583" stroke-width="5.2161" d="M48.3,81.2V59.6c0-2.3,1.9-4.3,4.3-4.3l0,0c2.3,0,4.3,1.9,4.3,4.3
			v21.6"/>
	</g>
	<g>
		<polyline fill="none" stroke="#009583" stroke-width="5.2161" points="137.9,122.3 101.2,122.3 101.2,130.6 		"/>
	</g>
	<g>
		<polyline fill="none" stroke="#009583" stroke-width="5.2161" points="16.8,122.3 57.4,122.3 57.4,130.6 		"/>
		<polyline fill="none" stroke="#009583" stroke-width="5.2161" points="16.8,122.3 57.4,122.3 57.4,130.6 		"/>
	</g>
</g>
</svg>
