<?xml version="1.0" encoding="utf-8"?>
<!-- Generator: Adobe Illustrator 19.2.1, SVG Export Plug-In . SVG Version: 6.00 Build 0)  -->
<!DOCTYPE svg PUBLIC "-//W3C//DTD SVG 1.1//EN" "http://www.w3.org/Graphics/SVG/1.1/DTD/svg11.dtd">
<svg version="1.1" id="Layer_1" xmlns="http://www.w3.org/2000/svg" xmlns:xlink="http://www.w3.org/1999/xlink" x="0px" y="0px"
	 viewBox="0 0 144 144" enable-background="new 0 0 144 144" xml:space="preserve">
<g>
	<g>
		<path fill="#009583" d="M-124.5,63.7c-1.5,6.3-4.7,12.2-9.4,16.9c-6.6,6.6-15.5,10.3-24.9,10.3c-6.5,0-12.9-1.8-18.3-5.1l22-22
			H-124.5 M-118,58.1h-39.3l-28.2,28.2c7.4,6.5,16.9,10.1,26.9,10.1c10.9,0,21.1-4.2,28.8-11.9C-122.8,77.4-118.6,68.1-118,58.1
			L-118,58.1z"/>
		<path fill="#009583" d="M-150.5,21.5c12.5,2.9,22.3,12.4,25.6,24.8h-25.6L-150.5,21.5 M-156.1,15.1l0,36.9h37.9
			C-120,31.9-136,16.3-156.1,15.1L-156.1,15.1z"/>
		<path fill="none" stroke="#009583" stroke-width="5.593" d="M-156.5,6.6c26.1,1.2,46.9,22.8,46.9,49.2c0,27.2-22,49.2-49.2,49.2
			c-12.5,0-24-4.7-32.7-12.4"/>
		<path fill="#009583" d="M-168.1,10.5V52l-29,29.6c-5.1-7.6-7.9-16.6-7.9-25.8C-205.1,33.7-189.2,14.8-168.1,10.5 M-162.5,4.1
			c-26.9,1.9-48.1,24.3-48.1,51.6c0,13.2,4.9,25.2,13,34.3l35.1-35.8V4.1L-162.5,4.1z"/>
	</g>
	<g>
		<g>
			<path fill="none" stroke="#009583" stroke-width="5.593" d="M-128.8,86.7"/>
		</g>
		<path fill="none" stroke="#009583" stroke-width="5.593" d="M-77.6,123.4c3.8,9.2-5.4,18.3-14.5,14.5c-11.7-11.7-18-18-29.7-29.7
			c4.8-4.8,9.7-9.7,14.5-14.5C-95.5,105.4-89.3,111.7-77.6,123.4z"/>
		<line fill="none" stroke="#009583" stroke-width="5.593" x1="-100.7" y1="103.6" x2="-111.9" y2="114.8"/>
		<g>
			<line fill="none" stroke="#009583" stroke-width="5.593" x1="-115.6" y1="99.9" x2="-123.5" y2="92"/>
		</g>
	</g>
</g>
<g>
	<g>
		<g>
			<path fill="none" stroke="#009583" stroke-width="5.4728" d="M30.9,119.8h-9.5c-4.8,0-8.8,3.9-8.8,8.8c0,4.8,3.9,8.8,8.8,8.8h9.5
				V119.8z"/>
			<polyline fill="none" stroke="#009583" stroke-width="5.4728" points="118.8,38.2 120.1,38.3 57.8,38.3 			"/>
			<path fill="none" stroke="#009583" stroke-width="5.4728" d="M37.3,38.3h-16c-4.5,0-8.2,3.4-8.7,7.7c0,2.4,0,77.7,0,81.6
				c0.5-4.4,4.2-7.7,8.7-7.7h99.4v0l1.5,0c4.5,0,8.2-3.4,8.7-7.8c0-2.4,0-77.7,0-81.6"/>
			<path fill="none" stroke="#009583" stroke-width="5.4728" d="M117.7,103.6h4.4c4.5,0,8.2,3.4,8.7,7.7c0-3.9,0-79.2,0-81.6
				c-0.5-4.4-4.2-7.7-8.7-7.7h-4.4V103.6z"/>
		</g>
	</g>
	<g>
		<circle fill="none" stroke="#009583" stroke-width="5.4728" cx="90.9" cy="74.6" r="7.8"/>
		<g>
			<line fill="none" stroke="#009583" stroke-width="5.4728" x1="90.9" y1="65.2" x2="90.9" y2="57.8"/>
			<line fill="none" stroke="#009583" stroke-width="5.4728" x1="90.9" y1="91.4" x2="90.9" y2="84.1"/>
		</g>
		<g>
			<line fill="none" stroke="#009583" stroke-width="5.4728" x1="82.7" y1="69.9" x2="76.4" y2="66.2"/>
			<line fill="none" stroke="#009583" stroke-width="5.4728" x1="105.4" y1="83" x2="99.1" y2="79.3"/>
		</g>
		<g>
			<line fill="none" stroke="#009583" stroke-width="5.4728" x1="82.7" y1="79.3" x2="76.4" y2="83"/>
			<line fill="none" stroke="#009583" stroke-width="5.4728" x1="105.4" y1="66.2" x2="99.1" y2="69.9"/>
		</g>
	</g>
	<g>
		<polyline fill="none" stroke="#009583" stroke-width="5.4728" points="29.8,91.9 38.5,61.8 47.2,31.7 55.9,61.8 64.6,91.9 		"/>
		<circle fill="none" stroke="#009583" stroke-width="5.4728" cx="47.2" cy="24.9" r="7.8"/>
		<line fill="none" stroke="#009583" stroke-width="5.4728" x1="47.2" y1="16.2" x2="47.2" y2="4.4"/>
		<path fill="none" stroke="#009583" stroke-width="5.4728" d="M29.1,60.5c11.4,5.4,24.8,5.4,36.2,0"/>
	</g>
</g>
<g>
	<rect x="-209.5" y="252.3" fill="none" stroke="#009583" stroke-width="4.9486" width="121.9" height="86.5"/>
	<polyline fill="none" stroke="#009583" stroke-width="4.9486" points="-97.5,297.6 -97.5,303.1 -199.6,303.1 -199.6,262 -97.5,262 
		-97.5,267.6 	"/>
	<path fill="#009583" d="M-175,315.4v11h-22.1v-11H-175 M-170.1,310.5h-32v20.9h32V310.5L-170.1,310.5z"/>
	<path fill="#009583" d="M-137.5,315.4v11h-22.1v-11H-137.5 M-132.6,310.5h-32v20.9h32V310.5L-132.6,310.5z"/>
	<path fill="#009583" d="M-100,315.4v11H-122v-11H-100 M-95,310.5h-32v20.9h32V310.5L-95,310.5z"/>
	<rect x="-209.5" y="238.1" fill="none" stroke="#009583" stroke-width="4.9486" width="121.9" height="14.2"/>
	<line fill="none" stroke="#009583" stroke-width="4.9486" x1="-203.9" y1="245.1" x2="-199.3" y2="245.1"/>
	<line fill="none" stroke="#009583" stroke-width="4.9486" x1="-195.9" y1="245.1" x2="-191.3" y2="245.1"/>
	<line fill="none" stroke="#009583" stroke-width="4.9486" x1="-187.9" y1="245.1" x2="-183.3" y2="245.1"/>
	<g>
		<polyline fill="none" stroke="#009583" stroke-width="4.9486" points="-171.5,290.8 -173.2,290.8 -190.1,282.3 -173.2,273.8 
			-171.5,273.8 		"/>
		<path fill="#009583" d="M-90.2,276.2v12.3h-78.7l0-12.3H-90.2 M-85.2,271.2h-88.6l0,22.2h88.6V271.2L-85.2,271.2z"/>
		<line fill="none" stroke="#009583" stroke-width="4.9486" x1="-86.8" y1="282.3" x2="-169.2" y2="282.3"/>
		<path fill="none" stroke="#009583" stroke-width="4.9486" d="M-85.9,290.9h6.9c0.9,0,1.5-0.8,1.5-1.9l0-13.4c0-1-0.7-1.9-1.5-1.9
			h-6.9"/>
	</g>
</g>
<g>
	<g>
		<line fill="none" stroke="#009583" stroke-width="5.2161" x1="83.1" y1="315.3" x2="73.7" y2="315.3"/>
		<line fill="none" stroke="#009583" stroke-width="5.2161" x1="129.7" y1="242.2" x2="129.7" y2="288.4"/>
		<path fill="none" stroke="#009583" stroke-width="5.2161" d="M17.3,315.3c-2.4,0-4.4-2-4.4-4.4v-68.7"/>
		<g>
			<g>
				<line fill="none" stroke="#009583" stroke-width="5.2161" x1="22.7" y1="246" x2="28.7" y2="246"/>
			</g>
			<g>
				<line fill="none" stroke="#009583" stroke-width="5.2161" x1="35.8" y1="246" x2="41.8" y2="246"/>
			</g>
			<g>
				<line fill="none" stroke="#009583" stroke-width="5.2161" x1="48.9" y1="246" x2="54.9" y2="246"/>
			</g>
			<g>
				<line fill="none" stroke="#009583" stroke-width="5.2161" x1="62" y1="246" x2="68" y2="246"/>
			</g>
			<g>
				<line fill="none" stroke="#009583" stroke-width="5.2161" x1="75.1" y1="246" x2="81.1" y2="246"/>
			</g>
			<g>
				<line fill="none" stroke="#009583" stroke-width="5.2161" x1="88.2" y1="246" x2="94.2" y2="246"/>
			</g>
			<g>
				<line fill="none" stroke="#009583" stroke-width="5.2161" x1="101.3" y1="246" x2="107.3" y2="246"/>
			</g>
			<g>
				<line fill="none" stroke="#009583" stroke-width="5.2161" x1="114.4" y1="246" x2="120.4" y2="246"/>
			</g>
		</g>
		<g>
			<g>
				<line fill="none" stroke="#009583" stroke-width="5.2161" x1="22.7" y1="256.9" x2="28.7" y2="256.9"/>
			</g>
			<g>
				<line fill="none" stroke="#009583" stroke-width="5.2161" x1="35.8" y1="256.9" x2="41.8" y2="256.9"/>
			</g>
			<g>
				<line fill="none" stroke="#009583" stroke-width="5.2161" x1="48.9" y1="256.9" x2="54.9" y2="256.9"/>
			</g>
			<g>
				<line fill="none" stroke="#009583" stroke-width="5.2161" x1="62" y1="256.9" x2="68" y2="256.9"/>
			</g>
			<g>
				<line fill="none" stroke="#009583" stroke-width="5.2161" x1="75.1" y1="256.9" x2="81.1" y2="256.9"/>
			</g>
			<g>
				<line fill="none" stroke="#009583" stroke-width="5.2161" x1="88.2" y1="256.9" x2="94.2" y2="256.9"/>
			</g>
			<g>
				<line fill="none" stroke="#009583" stroke-width="5.2161" x1="101.3" y1="256.9" x2="107.3" y2="256.9"/>
			</g>
			<g>
				<line fill="none" stroke="#009583" stroke-width="5.2161" x1="114.4" y1="256.9" x2="120.4" y2="256.9"/>
			</g>
		</g>
		<g>
			<g>
				<line fill="none" stroke="#009583" stroke-width="5.2161" x1="22.7" y1="267.8" x2="28.7" y2="267.8"/>
			</g>
			<g>
				<line fill="none" stroke="#009583" stroke-width="5.2161" x1="62" y1="267.8" x2="68" y2="267.8"/>
			</g>
			<g>
				<line fill="none" stroke="#009583" stroke-width="5.2161" x1="75.1" y1="267.8" x2="81.1" y2="267.8"/>
			</g>
			<g>
				<line fill="none" stroke="#009583" stroke-width="5.2161" x1="88.2" y1="267.8" x2="94.2" y2="267.8"/>
			</g>
			<g>
				<line fill="none" stroke="#009583" stroke-width="5.2161" x1="114.4" y1="267.8" x2="120.4" y2="267.8"/>
			</g>
		</g>
		<g>
			<g>
				<line fill="none" stroke="#009583" stroke-width="5.2161" x1="62" y1="278.6" x2="92.4" y2="278.6"/>
			</g>
			<g>
				<line fill="none" stroke="#009583" stroke-width="5.2161" x1="75.1" y1="278.6" x2="81.1" y2="278.6"/>
			</g>
			<g>
				<line fill="none" stroke="#009583" stroke-width="5.2161" x1="88.2" y1="278.6" x2="94.2" y2="278.6"/>
			</g>
			<g>
				<line fill="none" stroke="#009583" stroke-width="5.2161" x1="114.4" y1="278.6" x2="120.4" y2="278.6"/>
			</g>
		</g>
		<path fill="none" stroke="#009583" stroke-width="5.2161" d="M137.4,236.6c-2.1-3.6-6-7.3-10.4-7.3H15.6c-4.4,0-8.3,3.7-10.4,7.3
			H137.4z"/>
	</g>
	<path fill="none" stroke="#009583" stroke-width="5.2161" d="M130.3,337.9v-5.8c2.8-2.1,4.6-5.4,4.6-9.1v-19.8l-0.2-4.4
		c0-2.3-1.9-4.2-4.2-4.2c-2.3,0-4.2,0.8-4.2,3.2v-1.1c0-2.3-1.9-4.2-4.2-4.2c-2.3,0-4.2,1.9-4.2,4.2v-2.1c0-2.3-1.9-4.2-4.2-4.2
		c-2.3,0-4.2,1.9-4.2,4.2v2.4c0-5.7,0-24.4,0-24.4c0-2.4-2-4.4-4.4-4.4c-2.4,0-4.4,2-4.4,4.4l0,42.9l-0.1-2.1v-8.8
		c0-3.6-2.9-6.5-6.5-6.5h-2.2c-0.1,0,0.1,0,0,0v8.1c0,0,0,0,0,0v10.8l12.3,14.3c1.4,1.3,3.2,2.3,5.1,2.8v3.9"/>
	<g>
		<path fill="none" stroke="#009583" stroke-width="5.2161" d="M26.9,337.9v-5.8c-2.8-2.1-4.6-5.4-4.6-9.1v-25.9"/>
		<path fill="none" stroke="#009583" stroke-width="5.2161" d="M56.8,297.1l0,18.3l0.1-2.1v-8.8c0-3.6,2.9-6.5,6.5-6.5h2.2
			c-0.3,0-0.5,0,0,0v8.1c0,0,0,0,0,0v10.8l-12.3,14.3c-1.4,1.3-3.2,2.3-5.1,2.8v3.9"/>
		<path fill="none" stroke="#009583" stroke-width="5.2161" d="M22.3,297.2v-15.4c0-2.3,1.9-4.3,4.3-4.3l0,0c2.3,0,4.3,1.9,4.3,4.3
			v15.4"/>
		<path fill="none" stroke="#009583" stroke-width="5.2161" d="M31,297.2v-24.6c0-2.3,1.9-4.3,4.3-4.3l0,0c2.3,0,4.3,1.9,4.3,4.3
			v24.6"/>
		<path fill="none" stroke="#009583" stroke-width="5.2161" d="M39.6,297.2v-29c0-2.3,1.9-4.3,4.3-4.3l0,0c2.3,0,4.3,1.9,4.3,4.3v29
			"/>
		<path fill="none" stroke="#009583" stroke-width="5.2161" d="M48.3,297.2v-21.6c0-2.3,1.9-4.3,4.3-4.3l0,0c2.3,0,4.3,1.9,4.3,4.3
			v21.6"/>
	</g>
	<g>
		<polyline fill="none" stroke="#009583" stroke-width="5.2161" points="137.9,338.3 101.2,338.3 101.2,346.6 		"/>
	</g>
	<g>
		<polyline fill="none" stroke="#009583" stroke-width="5.2161" points="16.8,338.3 57.4,338.3 57.4,346.6 		"/>
		<polyline fill="none" stroke="#009583" stroke-width="5.2161" points="16.8,338.3 57.4,338.3 57.4,346.6 		"/>
	</g>
</g>
<g>
	<g>
		<g>
			<polyline fill="none" stroke="#009583" stroke-width="5.5981" points="276.6,62.9 294.5,62.8 294.5,45 			"/>
			<line fill="none" stroke="#009583" stroke-width="5.5981" x1="293.4" y1="61.8" x2="273.9" y2="42.2"/>
		</g>
		<g>
			<polyline fill="none" stroke="#009583" stroke-width="5.5981" points="262.5,29.6 244.6,29.6 244.6,47.5 			"/>
			<line fill="none" stroke="#009583" stroke-width="5.5981" x1="245.4" y1="30.3" x2="265.2" y2="50.2"/>
		</g>
	</g>
	<g>
		<g>
			<path fill="none" stroke="#009583" stroke-width="5.5981" d="M354,86.6V9.4c0-2-1.6-3.6-3.6-3.6H225.6c-2,0-3.6,1.6-3.6,3.6v77.2
				"/>
			<polyline fill="none" stroke="#009583" stroke-width="5.5981" points="297,74.6 233.7,74.6 233.7,17.7 342.1,17.7 342.1,55.6 			
				"/>
			<path fill="none" stroke="#009583" stroke-width="5.5981" d="M297,86.5h-75.2v11.1c0,2.1,2.2,4.5,4.3,4.5H297"/>
			<path fill="none" stroke="#009583" stroke-width="5.5981" d="M343.9,102.2h6.8c2.1,0,3.4-2.2,3.4-4.3V86.5h-10.2"/>
			<path fill="none" stroke="#009583" stroke-width="5.5981" d="M273.3,102.3c-0.2,2.8,0.3,8.9-0.3,11.9c-0.5,2.8-0.9,2.8-2.4,3.7
				c-0.8,0.5-2.2,1.1-3.4,1.6l0,0"/>
			<line fill="none" stroke="#009583" stroke-width="5.5981" x1="263.6" y1="119.2" x2="297" y2="119.2"/>
		</g>
	</g>
	<g>
		<path fill="none" stroke="#009583" stroke-width="5.5981" stroke-miterlimit="10" d="M342.1,135.1c0,1.3-1,2.3-2.3,2.3h-32.5
			c-1.3,0-2.3-1-2.3-2.3V66.7c0-1.3,1-2.3,2.3-2.3h32.5c1.3,0,2.3,1,2.3,2.3V135.1z"/>
		<line fill="none" stroke="#009583" stroke-width="5.5981" stroke-miterlimit="10" x1="341.3" y1="125.9" x2="305.8" y2="125.9"/>
		<line fill="none" stroke="#009583" stroke-width="5.5981" stroke-miterlimit="10" x1="305.8" y1="75.4" x2="341.3" y2="75.4"/>
	</g>
</g>
<g>
	<path fill="none" stroke="#009583" stroke-width="5.6504" d="M343.8,238.5v-4.8c0-0.6-0.5-1.1-1.1-1.1h-7.8c-0.6,0-1.1,0.5-1.1,1.1
		v4.8"/>
	<polyline fill="none" stroke="#009583" stroke-width="5.6504" points="343.8,308.6 343.8,310.7 338.8,321.8 333.8,310.7 
		333.8,308.6 	"/>
	<polyline fill="none" stroke="#009583" stroke-width="5.6504" points="293.2,354.2 229.9,354.2 229.9,328.2 229.9,293.8 
		229.9,223.6 321.3,223.6 321.3,293.8 321.3,326.2 	"/>
	<g>
		<polygon fill="none" stroke="#009583" stroke-width="5.6504" points="299.1,332.1 317,332.1 299.1,350 		"/>
	</g>
	<line fill="none" stroke="#009583" stroke-width="5.6504" x1="261.5" y1="247.8" x2="303.2" y2="247.8"/>
	<line fill="none" stroke="#009583" stroke-width="5.6504" x1="261.5" y1="258" x2="303.2" y2="258"/>
	<polyline fill="none" stroke="#009583" stroke-width="5.6504" points="254.5,247.5 247.4,256.4 242.7,253.4 	"/>
	<line fill="none" stroke="#009583" stroke-width="5.6504" x1="261.5" y1="278.3" x2="303.2" y2="278.3"/>
	<line fill="none" stroke="#009583" stroke-width="5.6504" x1="261.5" y1="288.6" x2="303.2" y2="288.6"/>
	<polyline fill="none" stroke="#009583" stroke-width="5.6504" points="254.5,278 247.4,286.9 242.7,283.9 	"/>
	<line fill="none" stroke="#009583" stroke-width="5.6504" x1="261.5" y1="308.9" x2="303.2" y2="308.9"/>
	<line fill="none" stroke="#009583" stroke-width="5.6504" x1="261.5" y1="319.1" x2="303.2" y2="319.1"/>
	<polyline fill="none" stroke="#009583" stroke-width="5.6504" points="254.5,308.5 247.4,317.4 242.7,314.4 	"/>
	<rect x="333.7" y="243.8" fill="none" stroke="#009583" stroke-width="5.6504" width="10.2" height="64.5"/>
</g>
</svg>
