<?xml version="1.0" encoding="utf-8"?>
<!-- Generator: Adobe Illustrator 19.2.1, SVG Export Plug-In . SVG Version: 6.00 Build 0)  -->
<!DOCTYPE svg PUBLIC "-//W3C//DTD SVG 1.1//EN" "http://www.w3.org/Graphics/SVG/1.1/DTD/svg11.dtd">
<svg version="1.1" id="Layer_1" xmlns="http://www.w3.org/2000/svg" xmlns:xlink="http://www.w3.org/1999/xlink" x="0px" y="0px"
	 viewBox="0 0 144 144" enable-background="new 0 0 144 144" xml:space="preserve">
<g>
	<path fill="none" stroke="#009583" stroke-width="5.1538" d="M94.6,21.8l19.2,0c2.7,0,4.9,2.2,4.9,4.9l-0.1,106.7
		c0,2.7-2.2,4.9-4.9,4.9l-78.7,0c-2.7,0-4.9-2.2-4.9-4.9l0.1-106.7c0-2.7,2.2-4.9,4.9-4.9l15.3,0"/>
	<g>
		<polyline fill="none" stroke="#009583" stroke-width="5.1538" points="89.5,31.4 108.7,31.4 108.6,127.4 40.8,127.3 40.8,31.4 
			56,31.4 		"/>
	</g>
	<path fill="#FFFFFF" stroke="#009583" stroke-width="2.5769" stroke-miterlimit="10" d="M72.5,10.5C72.5,10.5,72.5,10.5,72.5,10.5
		C72.6,10.5,72.6,10.5,72.5,10.5c0.1,0,0.1,0,0.2,0c2.2,0,3.9,1.8,3.9,3.9c0,1.2-0.5,2.2-1.3,2.9l1.9,3.2l0.9,1.5l8.2,0l0,11.3H59.7
		l0-11.4l7.5,0l0.9-1.5l1.9-3.2c-0.8-0.7-1.3-1.8-1.3-2.9C68.6,12.2,70.4,10.5,72.5,10.5 M72.6,16.3c1,0,1.8-0.9,1.8-1.9
		c0-1-0.8-1.8-1.8-1.9c-1,0-1.8,0.9-1.8,1.9C70.8,15.4,71.6,16.2,72.6,16.3 M72.7,5.3h-0.2h-0.2l0,0c-4.9,0.1-8.8,4.2-8.8,9.1
		c0,0.9,0.1,1.7,0.4,2.5l-4.1,0l-5.2,0l0,5.2l0,11.4l0,5.2h5.2h26.6h5.2l0-5.2l0-11.3l0-5.2l-5.2,0l-4.8,0c0.2-0.8,0.4-1.7,0.4-2.5
		c0-2.4-0.9-4.7-2.7-6.4C77.4,6.3,75.1,5.3,72.7,5.3L72.7,5.3z"/>
	<g>
		<circle fill="none" stroke="#009583" stroke-width="5.1538" cx="84.1" cy="102.9" r="14.7"/>
		<g>
			<line fill="none" stroke="#009583" stroke-width="5.1538" x1="89.9" y1="97" x2="78.2" y2="108.7"/>
			<line fill="none" stroke="#009583" stroke-width="5.1538" x1="78.2" y1="97" x2="89.9" y2="108.7"/>
		</g>
	</g>
	<circle fill="none" stroke="#009583" stroke-width="5.1538" cx="60" cy="62.3" r="8"/>
	<g>
		<polyline fill="none" stroke="#009583" stroke-width="5.1538" points="97.5,55.7 87.8,45.9 78,55.7 		"/>
		<path fill="none" stroke="#009583" stroke-width="5.1538" d="M48.4,90.9C70.3,90.9,88,73.4,88,51.8c0-1.4-0.1-2.7-0.2-4"/>
	</g>
</g>
</svg>
