<?xml version="1.0" encoding="utf-8"?>
<!-- Generator: Adobe Illustrator 19.2.1, SVG Export Plug-In . SVG Version: 6.00 Build 0)  -->
<!DOCTYPE svg PUBLIC "-//W3C//DTD SVG 1.1//EN" "http://www.w3.org/Graphics/SVG/1.1/DTD/svg11.dtd">
<svg version="1.1" id="Layer_1" xmlns="http://www.w3.org/2000/svg" xmlns:xlink="http://www.w3.org/1999/xlink" x="0px" y="0px"
	 viewBox="0 0 144 144" enable-background="new 0 0 144 144" xml:space="preserve">
<g>
	<g>
		<polyline fill="none" stroke="#009583" stroke-width="4.6313" points="76.5,91 75.3,89.8 69.8,73.1 86.6,78.6 87.7,79.7 		"/>
		<path fill="#FFFFFF" stroke="#009583" stroke-width="3" stroke-miterlimit="10" d="M87.9,83l36.2,36.2l-8.1,8.1L79.8,91.2L87.9,83
			 M87.9,76.5L73.2,91.2l42.8,42.8l14.7-14.7L87.9,76.5L87.9,76.5z"/>
		<line fill="none" stroke="#009583" stroke-width="4.6313" x1="122.3" y1="125.5" x2="83.6" y2="86.9"/>
		<path fill="none" stroke="#009583" stroke-width="4.6313" d="M117.2,131.8l4.6,4.6c0.6,0.6,1.6,0.5,2.3-0.2l8.9-8.9
			c0.7-0.7,0.8-1.7,0.2-2.3l-4.6-4.6"/>
	</g>
	<g>
		<path fill="none" stroke="#009583" stroke-width="4.6313" d="M103.9,95.8c12.6-17.7,11-42.4-4.9-58.3c-17.7-17.7-46.4-17.7-64.1,0
			c-17.7,17.7-17.7,46.4,0,64.1c15.5,15.5,39.4,17.4,57,5.8"/>
		<path fill="none" stroke="#009583" stroke-width="4.6313" d="M93.1,84.3C99.7,72.9,98,58,88.2,48.2c-11.8-11.7-30.8-11.7-42.6,0
			C33.9,60,33.9,79,45.6,90.8c9.5,9.5,23.7,11.3,35.1,5.5"/>
		<path fill="none" stroke="#009583" stroke-width="4.6313" d="M76.6,59.8c-5.3-5.3-14-5.3-19.4,0c-5.3,5.3-5.3,14,0,19.4
			c5.4,5.3,14,5.3,19.4,0C82,73.8,82,65.2,76.6,59.8z"/>
		<g>
			<line fill="none" stroke="#009583" stroke-width="4.6313" x1="66.9" y1="47.2" x2="66.9" y2="7.8"/>
			<line fill="none" stroke="#009583" stroke-width="4.6313" x1="66.9" y1="131.2" x2="66.9" y2="91.8"/>
		</g>
		<g>
			<line fill="none" stroke="#009583" stroke-width="4.6313" x1="89.2" y1="69.5" x2="128.6" y2="69.5"/>
			<line fill="none" stroke="#009583" stroke-width="4.6313" x1="5.3" y1="69.5" x2="44.7" y2="69.5"/>
		</g>
	</g>
</g>
</svg>
