<?xml version="1.0" encoding="utf-8"?>
<!-- Generator: Adobe Illustrator 19.2.1, SVG Export Plug-In . SVG Version: 6.00 Build 0)  -->
<!DOCTYPE svg PUBLIC "-//W3C//DTD SVG 1.1//EN" "http://www.w3.org/Graphics/SVG/1.1/DTD/svg11.dtd">
<svg version="1.1" id="Layer_1" xmlns="http://www.w3.org/2000/svg" xmlns:xlink="http://www.w3.org/1999/xlink" x="0px" y="0px"
	 viewBox="0 0 144 144" enable-background="new 0 0 144 144" xml:space="preserve">
<g>
	<polyline fill="none" stroke="#009583" stroke-width="5.8127" points="50.8,124.7 50.8,135 129.4,135 129.4,68.8 129.4,37 	"/>
	<polyline fill="none" stroke="#009583" stroke-width="5.8127" points="104.2,11.7 50.8,11.7 50.8,36.9 	"/>
	<g>
		<path fill="#FFFFFF" stroke="#009583" stroke-width="2.9063" stroke-miterlimit="10" d="M114.3,22.9l4,4h-4V22.9 M108.5,8.8v23.8
			h23.8L108.5,8.8L108.5,8.8z"/>
	</g>
	<g>
		<polyline fill="none" stroke="#009583" stroke-width="5.8127" points="47.5,50.3 116.5,50.3 116.5,123.1 9.1,123.1 9.1,50.3 
			21.7,50.3 		"/>
		<path fill="#FFFFFF" stroke="#009583" stroke-width="2.9063" stroke-miterlimit="10" d="M101.4,65.5V97H80.5l-1.2-1.6L66,77.8
			l-4.6-6.2l-4.6,6.2L51,85.5L39.5,70.2L36,65.5H101.4 M33.8,65.5l-3.6,4.7l-5.9,7.9V65.5H33.8 M107.2,59.6H18.5v35.9l16.4-21.8
			L51,95.1l10.4-13.9l13.3,17.7l2.9,3.9h29.6V59.6L107.2,59.6z"/>
		<circle fill="none" stroke="#009583" stroke-width="5.8127" cx="86.3" cy="79" r="7.6"/>
	</g>
	<g>
		<path fill="none" stroke="#009583" stroke-width="5.8127" d="M40,36.9l0-14.6c0-5.8-4.7-10.5-10.5-10.5l0,0
			c-5.8,0-10.5,4.7-10.5,10.5v14.6"/>
		<path fill="none" stroke="#009583" stroke-width="5.8127" d="M28.8,27.6l0,21.6c0,3.1,2.5,5.6,5.6,5.6l0,0c3.1,0,5.6-2.5,5.6-5.6
			l0-16.3"/>
	</g>
</g>
</svg>
