<?xml version="1.0" encoding="utf-8"?>
<!-- Generator: Adobe Illustrator 19.2.1, SVG Export Plug-In . SVG Version: 6.00 Build 0)  -->
<!DOCTYPE svg PUBLIC "-//W3C//DTD SVG 1.1//EN" "http://www.w3.org/Graphics/SVG/1.1/DTD/svg11.dtd">
<svg version="1.1" id="Layer_1" xmlns="http://www.w3.org/2000/svg" xmlns:xlink="http://www.w3.org/1999/xlink" x="0px" y="0px"
	 viewBox="0 0 144 144" enable-background="new 0 0 144 144" xml:space="preserve">
<g>
	<g>
		<path fill="none" stroke="#009583" stroke-width="5.1433" stroke-linecap="round" stroke-miterlimit="10" d="M47.3,99.7
			c-8.7,5.7-14.6,16.1-14.6,28"/>
		<path fill="none" stroke="#009583" stroke-width="5.1433" stroke-linecap="round" stroke-miterlimit="10" d="M110.3,127.6
			c0-11.9-5.9-22.3-14.7-28"/>
		<path fill="none" stroke="#009583" stroke-width="5.1433" stroke-linecap="round" stroke-miterlimit="10" d="M94.1,90.3
			c4.5-8.1,7.3-17.9,7.5-28.5C102.1,33.1,84,9.6,61.2,9.1c-2.5,0-4.9,0.3-7.3,0.8c0.5,2.5,1.1,7.5,1.8,10L30.9,45.4l0.4,8.4l9.5,8.4
			c0,0,6.8-10.3,22.2-12.3c-8.6,16.5-13,29-14.5,40"/>
		<path fill="none" stroke="#009583" stroke-width="5.1433" stroke-miterlimit="10" d="M55.6,19.9c17.7,1,31.1,12.3,37,28.6"/>
		<g>
			<path fill="none" stroke="#009583" stroke-width="5.1433" stroke-miterlimit="10" d="M63.2,49.4c1.6-3.2,3.4-6.4,5.3-9.9"/>
		</g>
		<path fill="none" stroke="#009583" stroke-width="5.1433" stroke-miterlimit="10" d="M80.3,90.5h16.5c1.4,0,2.6,1.2,2.6,2.6v3.9
			c0,1.4-1.2,2.6-2.6,2.6H47.1c-1.4,0-2.6-1.2-2.6-2.6v-3.9c0-1.4,1.2-2.6,2.6-2.6h7.5"/>
		<path fill="none" stroke="#009583" stroke-width="5.1433" stroke-miterlimit="10" d="M86.3,128.4H111c1.4,0,2.6,1.2,2.6,2.6v3.9
			c0,1.4-1.2,2.6-2.6,2.6H33c-1.4,0-2.6-1.2-2.6-2.6V131c0-1.4,1.2-2.6,2.6-2.6h8.8"/>
	</g>
	<line fill="none" stroke="#009583" stroke-width="5.1433" stroke-miterlimit="10" x1="81.1" y1="128.4" x2="69.5" y2="128.4"/>
	<line fill="none" stroke="#009583" stroke-width="5.1433" stroke-miterlimit="10" x1="76.3" y1="90.5" x2="71.1" y2="90.5"/>
</g>
</svg>
